<svg xmlns="http://www.w3.org/2000/svg" version="1.1" xmlns:xlink="http://www.w3.org/1999/xlink" xmlns:svgjs="http://svgjs.com/svgjs" width="3200px" height="3195.2666015625px"><svg id="SvgjsSvg1381" viewBox="0 0 3200 3195.2666" xmlns="http://www.w3.org/2000/svg" height="3195.2666015625px" width="3200px" version="1.1"><rect id="SvgjsRect1380" x="0" y="0" width="3200" height="3195.2666015625" style="fill: white; fill-opacity: 0; pointer-events: none;"></rect><metadata id="SvgjsMetadata1379"></metadata><defs id="SvgjsDefs1378"><clipPath id="SvgjsClipPath1377" clipPathUnits="userSpaceOnUse"><path id="SvgjsPath1376" d="m 12332,9933.5 h -1124.9 v 858.1 h 564.7 v -423.3 h 372.5 v 423.3 h 1789.6 v -423.3 h 372.5 v 423.3 h 1010.4 v -573 h -440.9 v 138.3 h -251.6 v -138.3 h -662.6 v 121.4 h -367.6 v -238.9 c -87.3,248.4 -324,426.5 -602.2,426.5 h -23.3 c -337.6,0 -614,-262.2 -636.6,-594.1 m 9445.7,285.1 c -94,0 -164.5,2.8 -164.5,11.2 0,20.3 -10.2,405.7 -6.2,561.8 v 0 h 2370.8 v -561.8 c -97.2,0 -1182.3,0 -1182.3,0 v 101.7 h -547.9 v -101.7 c 0,0 -282,-11.2 -469.9,-11.2 m -901.3,172.1 h -364.5 v 364.1 h -583.4 v 36.8 h 1122 l -163.3,-98.1 -10.8,-6.4 v -296.4 m -2927.7,355.6 h -1302.1 v 45.3 h 1302.1 v -45.3"></path></clipPath><linearGradient id="SvgjsLinearGradient1375" spreadMethod="pad" gradientTransform="matrix(2e-7,5059.73,-5059.73,2e-7,11991.7,5731.9)" gradientUnits="userSpaceOnUse" y2="0" x2="1" y1="0" x1="0"><stop id="SvgjsStop1374" offset="0" style="stop-opacity:1;stop-color:#fbcdd3"></stop><stop id="SvgjsStop1373" offset="0.0837989" style="stop-opacity:1;stop-color:#fbcdd3"></stop><stop id="SvgjsStop1372" offset="0.860335" style="stop-opacity:1;stop-color:#f9b4b3"></stop><stop id="SvgjsStop1371" offset="1" style="stop-opacity:1;stop-color:#f9b4b3"></stop></linearGradient><clipPath id="SvgjsClipPath1370" clipPathUnits="userSpaceOnUse"><path id="SvgjsPath1369" d="m 5.67188,6811.6 v 0 3980 H 53.0352 V 9682.8 H 5.67188 V 6811.6"></path></clipPath><linearGradient id="SvgjsLinearGradient1368" spreadMethod="pad" gradientTransform="matrix(2e-7,5059.73,-5059.73,2e-7,11991.7,5731.9)" gradientUnits="userSpaceOnUse" y2="0" x2="1" y1="0" x1="0"><stop id="SvgjsStop1367" offset="0" style="stop-opacity:1;stop-color:#fffdfc"></stop><stop id="SvgjsStop1366" offset="0.0837989" style="stop-opacity:1;stop-color:#fffdfc"></stop><stop id="SvgjsStop1365" offset="0.860335" style="stop-opacity:1;stop-color:#fde0d7"></stop><stop id="SvgjsStop1364" offset="1" style="stop-opacity:1;stop-color:#fde0d7"></stop></linearGradient><clipPath id="SvgjsClipPath1363" clipPathUnits="userSpaceOnUse"><path id="SvgjsPath1362" d="M 9150.74,9436.9 H 8666.7 v 237 h -569.77 v 1117.7 h 446.51 v -545.8 h 372.5 v 545.8 H 10779.1 V 9933.5 H 9150.74 v -496.6 m -1813.88,0 h -749.7 v 208.8 h -552.33 l -289.86,303 v 842.9 H 7668.88 V 9673.9 h -331.46 -0.56 v -237 M 1333.73,9682.8 H 53.0352 v 1108.8 H 1221.69 V 9689.1 h 112.04 v -6.3 M 3957.81,9737 H 1884.38 v 317.5 h -391.42 v 737.1 H 2825.07 V 9737 h 271.28 v 1054.6 h 232.12 v -545.8 h 372.5 v 545.8 h 328.65 V 9755.8 h 10.89 l -82.7,-18.8 m -2000.57,942.9 v -563.5 h 372.5 v 563.5 h -372.5 m 2343.65,-865.1 v 976.8 h 239.55 v -393.4 h 372.49 v 393.4 H 5473.7 V 10081 L 4300.89,9814.8"></path></clipPath><linearGradient id="SvgjsLinearGradient1361" spreadMethod="pad" gradientTransform="matrix(2e-7,5059.73,-5059.73,2e-7,11991.7,5731.9)" gradientUnits="userSpaceOnUse" y2="0" x2="1" y1="0" x1="0"><stop id="SvgjsStop1360" offset="0" style="stop-opacity:1;stop-color:#fbcdd3"></stop><stop id="SvgjsStop1359" offset="0.0837989" style="stop-opacity:1;stop-color:#fbcdd3"></stop><stop id="SvgjsStop1358" offset="0.860335" style="stop-opacity:1;stop-color:#f9b4b3"></stop><stop id="SvgjsStop1357" offset="1" style="stop-opacity:1;stop-color:#f9b4b3"></stop></linearGradient><clipPath id="SvgjsClipPath1356" clipPathUnits="userSpaceOnUse"><path id="SvgjsPath1355" d="m 2825.07,9737 h 271.281 v 1054.6 H 2825.07 Z"></path></clipPath><linearGradient id="SvgjsLinearGradient1354" spreadMethod="pad" gradientTransform="matrix(2e-7,5059.73,-5059.73,2e-7,11991.7,5731.9)" gradientUnits="userSpaceOnUse" y2="0" x2="1" y1="0" x1="0"><stop id="SvgjsStop1353" offset="0" style="stop-opacity:1;stop-color:#fbccd2"></stop><stop id="SvgjsStop1352" offset="0.0837989" style="stop-opacity:1;stop-color:#fbccd2"></stop><stop id="SvgjsStop1351" offset="0.860335" style="stop-opacity:1;stop-color:#f9abaa"></stop><stop id="SvgjsStop1350" offset="1" style="stop-opacity:1;stop-color:#f9abaa"></stop></linearGradient><clipPath id="SvgjsClipPath1349" clipPathUnits="userSpaceOnUse"><path id="SvgjsPath1348" d="m 1333.73,9689.1 h -112.04 v 1102.5 h 271.27 v -737.1 h -159.23 v -365.4"></path></clipPath><linearGradient id="SvgjsLinearGradient1347" spreadMethod="pad" gradientTransform="matrix(2e-7,5059.73,-5059.73,2e-7,11991.7,5731.9)" gradientUnits="userSpaceOnUse" y2="0" x2="1" y1="0" x1="0"><stop id="SvgjsStop1346" offset="0" style="stop-opacity:1;stop-color:#fbccd2"></stop><stop id="SvgjsStop1345" offset="0.0837989" style="stop-opacity:1;stop-color:#fbccd2"></stop><stop id="SvgjsStop1344" offset="0.860335" style="stop-opacity:1;stop-color:#f9abaa"></stop><stop id="SvgjsStop1343" offset="1" style="stop-opacity:1;stop-color:#f9abaa"></stop></linearGradient><clipPath id="SvgjsClipPath1342" clipPathUnits="userSpaceOnUse"><path id="SvgjsPath1341" d="m 5744.97,9948.7 -141.03,147.5 -11.31,11.8 -118.93,-27 v 710.6 h 271.27 v -842.9"></path></clipPath><linearGradient id="SvgjsLinearGradient1340" spreadMethod="pad" gradientTransform="matrix(2e-7,5059.73,-5059.73,2e-7,11991.7,5731.9)" gradientUnits="userSpaceOnUse" y2="0" x2="1" y1="0" x1="0"><stop id="SvgjsStop1339" offset="0" style="stop-opacity:1;stop-color:#fbccd2"></stop><stop id="SvgjsStop1338" offset="0.0837989" style="stop-opacity:1;stop-color:#fbccd2"></stop><stop id="SvgjsStop1337" offset="0.860335" style="stop-opacity:1;stop-color:#f9abaa"></stop><stop id="SvgjsStop1336" offset="1" style="stop-opacity:1;stop-color:#f9abaa"></stop></linearGradient><clipPath id="SvgjsClipPath1335" clipPathUnits="userSpaceOnUse"><path id="SvgjsPath1334" d="m 4040.51,9755.8 h -10.89 v 1035.8 h 271.27 v -976.8 l -245.88,-55.8 -14.5,-3.2"></path></clipPath><linearGradient id="SvgjsLinearGradient1333" spreadMethod="pad" gradientTransform="matrix(2e-7,5059.73,-5059.73,2e-7,11991.7,5731.9)" gradientUnits="userSpaceOnUse" y2="0" x2="1" y1="0" x1="0"><stop id="SvgjsStop1332" offset="0" style="stop-opacity:1;stop-color:#fbccd2"></stop><stop id="SvgjsStop1331" offset="0.0837989" style="stop-opacity:1;stop-color:#fbccd2"></stop><stop id="SvgjsStop1330" offset="0.860335" style="stop-opacity:1;stop-color:#f9abaa"></stop><stop id="SvgjsStop1329" offset="1" style="stop-opacity:1;stop-color:#f9abaa"></stop></linearGradient><clipPath id="SvgjsClipPath1328" clipPathUnits="userSpaceOnUse"><path id="SvgjsPath1327" d="m 7668.88,9673.9 h 428.051 v 1117.7 H 7668.88 Z"></path></clipPath><linearGradient id="SvgjsLinearGradient1326" spreadMethod="pad" gradientTransform="matrix(2e-7,5059.73,-5059.73,2e-7,11991.7,5731.9)" gradientUnits="userSpaceOnUse" y2="0" x2="1" y1="0" x1="0"><stop id="SvgjsStop1325" offset="0" style="stop-opacity:1;stop-color:#fbccd2"></stop><stop id="SvgjsStop1324" offset="0.0837989" style="stop-opacity:1;stop-color:#fbccd2"></stop><stop id="SvgjsStop1323" offset="0.860335" style="stop-opacity:1;stop-color:#f9abaa"></stop><stop id="SvgjsStop1322" offset="1" style="stop-opacity:1;stop-color:#f9abaa"></stop></linearGradient><clipPath id="SvgjsClipPath1321" clipPathUnits="userSpaceOnUse"><path id="SvgjsPath1320" d="m 10779.1,9933.5 h 428 v 858.102 h -428 z"></path></clipPath><linearGradient id="SvgjsLinearGradient1319" spreadMethod="pad" gradientTransform="matrix(2e-7,5059.73,-5059.73,2e-7,11991.7,5731.9)" gradientUnits="userSpaceOnUse" y2="0" x2="1" y1="0" x1="0"><stop id="SvgjsStop1318" offset="0" style="stop-opacity:1;stop-color:#fbcad1"></stop><stop id="SvgjsStop1317" offset="0.0837989" style="stop-opacity:1;stop-color:#fbcad1"></stop><stop id="SvgjsStop1316" offset="0.860335" style="stop-opacity:1;stop-color:#e09aa3"></stop><stop id="SvgjsStop1315" offset="1" style="stop-opacity:1;stop-color:#e09aa3"></stop></linearGradient><clipPath id="SvgjsClipPath1314" clipPathUnits="userSpaceOnUse"><path id="SvgjsPath1313" d="m 19493.5,10593.9 h -520.1 v 197.7 h 955.1 v -36.8 h -435 v -160.9"></path></clipPath><linearGradient id="SvgjsLinearGradient1312" spreadMethod="pad" gradientTransform="matrix(2e-7,5059.73,-5059.73,2e-7,11991.7,5731.9)" gradientUnits="userSpaceOnUse" y2="0" x2="1" y1="0" x1="0"><stop id="SvgjsStop1311" offset="0" style="stop-opacity:1;stop-color:#fbccd2"></stop><stop id="SvgjsStop1310" offset="0.0837989" style="stop-opacity:1;stop-color:#fbccd2"></stop><stop id="SvgjsStop1309" offset="0.860335" style="stop-opacity:1;stop-color:#f9abaa"></stop><stop id="SvgjsStop1308" offset="1" style="stop-opacity:1;stop-color:#f9abaa"></stop></linearGradient><clipPath id="SvgjsClipPath1307" clipPathUnits="userSpaceOnUse"><path id="SvgjsPath1306" d="m 15378,10218.6 h -61.2 v 573 h 555.2 v -11.4 l -299.7,-158.1 V 10450 H 15378 v -231.4 m 1268.6,527.7 h -332 v 45.3 h 332 v -45.3"></path></clipPath><linearGradient id="SvgjsLinearGradient1305" spreadMethod="pad" gradientTransform="matrix(2e-7,5059.73,-5059.73,2e-7,11991.7,5731.9)" gradientUnits="userSpaceOnUse" y2="0" x2="1" y1="0" x1="0"><stop id="SvgjsStop1304" offset="0" style="stop-opacity:1;stop-color:#fbccd2"></stop><stop id="SvgjsStop1303" offset="0.0837989" style="stop-opacity:1;stop-color:#fbccd2"></stop><stop id="SvgjsStop1302" offset="0.860335" style="stop-opacity:1;stop-color:#f9abaa"></stop><stop id="SvgjsStop1301" offset="1" style="stop-opacity:1;stop-color:#f9abaa"></stop></linearGradient><clipPath id="SvgjsClipPath1300" clipPathUnits="userSpaceOnUse"><path id="SvgjsPath1299" d="m 17948.7,10746.3 h 320.203 v 45.301 H 17948.7 Z"></path></clipPath><linearGradient id="SvgjsLinearGradient1298" spreadMethod="pad" gradientTransform="matrix(2e-7,5059.73,-5059.73,2e-7,11991.7,5731.9)" gradientUnits="userSpaceOnUse" y2="0" x2="1" y1="0" x1="0"><stop id="SvgjsStop1297" offset="0" style="stop-opacity:1;stop-color:#fbccd2"></stop><stop id="SvgjsStop1296" offset="0.0837989" style="stop-opacity:1;stop-color:#fbccd2"></stop><stop id="SvgjsStop1295" offset="0.860335" style="stop-opacity:1;stop-color:#f9abaa"></stop><stop id="SvgjsStop1294" offset="1" style="stop-opacity:1;stop-color:#f9abaa"></stop></linearGradient><clipPath id="SvgjsClipPath1293" clipPathUnits="userSpaceOnUse"><path id="SvgjsPath1292" d="m 13232.5,9671.1 h -403.3 v 262.4 H 12332 c 22.6,331.9 299,594.1 636.6,594.1 h 23.3 c 278.2,0 514.9,-178.1 602.2,-426.5 v -40.5 h -361.6 v -389.5"></path></clipPath><linearGradient id="SvgjsLinearGradient1291" spreadMethod="pad" gradientTransform="matrix(2e-7,5059.73,-5059.73,2e-7,11991.7,5731.9)" gradientUnits="userSpaceOnUse" y2="0" x2="1" y1="0" x1="0"><stop id="SvgjsStop1290" offset="0" style="stop-opacity:1;stop-color:#fbcad1"></stop><stop id="SvgjsStop1289" offset="0.0837989" style="stop-opacity:1;stop-color:#fbcad1"></stop><stop id="SvgjsStop1288" offset="0.860335" style="stop-opacity:1;stop-color:#e09aa3"></stop><stop id="SvgjsStop1287" offset="1" style="stop-opacity:1;stop-color:#e09aa3"></stop></linearGradient><clipPath id="SvgjsClipPath1286" clipPathUnits="userSpaceOnUse"><path id="SvgjsPath1285" d="m 13933.9,10368.3 h 372.5 v 423.301 h -372.5 z"></path></clipPath><linearGradient id="SvgjsLinearGradient1284" spreadMethod="pad" gradientTransform="matrix(2e-7,5059.73,-5059.73,2e-7,11991.7,5731.9)" gradientUnits="userSpaceOnUse" y2="0" x2="1" y1="0" x1="0"><stop id="SvgjsStop1283" offset="0" style="stop-opacity:1;stop-color:#fbcad1"></stop><stop id="SvgjsStop1282" offset="0.0837989" style="stop-opacity:1;stop-color:#fbcad1"></stop><stop id="SvgjsStop1281" offset="0.860335" style="stop-opacity:1;stop-color:#e09aa3"></stop><stop id="SvgjsStop1280" offset="1" style="stop-opacity:1;stop-color:#e09aa3"></stop></linearGradient><clipPath id="SvgjsClipPath1279" clipPathUnits="userSpaceOnUse"><path id="SvgjsPath1278" d="m 4540.44,10398.2 h 372.488 v 393.402 H 4540.44 Z"></path></clipPath><linearGradient id="SvgjsLinearGradient1277" spreadMethod="pad" gradientTransform="matrix(2e-7,5059.73,-5059.73,2e-7,11991.7,5731.9)" gradientUnits="userSpaceOnUse" y2="0" x2="1" y1="0" x1="0"><stop id="SvgjsStop1276" offset="0" style="stop-opacity:1;stop-color:#fbcad1"></stop><stop id="SvgjsStop1275" offset="0.0837989" style="stop-opacity:1;stop-color:#fbcad1"></stop><stop id="SvgjsStop1274" offset="0.860335" style="stop-opacity:1;stop-color:#e09aa3"></stop><stop id="SvgjsStop1273" offset="1" style="stop-opacity:1;stop-color:#e09aa3"></stop></linearGradient><clipPath id="SvgjsClipPath1272" clipPathUnits="userSpaceOnUse"><path id="SvgjsPath1271" d="m 11771.8,10368.3 h 372.5 v 423.301 h -372.5 z"></path></clipPath><linearGradient id="SvgjsLinearGradient1270" spreadMethod="pad" gradientTransform="matrix(2e-7,5059.73,-5059.73,2e-7,11991.7,5731.9)" gradientUnits="userSpaceOnUse" y2="0" x2="1" y1="0" x1="0"><stop id="SvgjsStop1269" offset="0" style="stop-opacity:1;stop-color:#fbcad1"></stop><stop id="SvgjsStop1268" offset="0.0837989" style="stop-opacity:1;stop-color:#fbcad1"></stop><stop id="SvgjsStop1267" offset="0.860335" style="stop-opacity:1;stop-color:#e09aa3"></stop><stop id="SvgjsStop1266" offset="1" style="stop-opacity:1;stop-color:#e09aa3"></stop></linearGradient><clipPath id="SvgjsClipPath1265" clipPathUnits="userSpaceOnUse"><path id="SvgjsPath1264" d="m 8543.44,10245.8 h 372.5 v 545.801 h -372.5 z"></path></clipPath><linearGradient id="SvgjsLinearGradient1263" spreadMethod="pad" gradientTransform="matrix(2e-7,5059.73,-5059.73,2e-7,11991.7,5731.9)" gradientUnits="userSpaceOnUse" y2="0" x2="1" y1="0" x1="0"><stop id="SvgjsStop1262" offset="0" style="stop-opacity:1;stop-color:#fbcad1"></stop><stop id="SvgjsStop1261" offset="0.0837989" style="stop-opacity:1;stop-color:#fbcad1"></stop><stop id="SvgjsStop1260" offset="0.860335" style="stop-opacity:1;stop-color:#e09aa3"></stop><stop id="SvgjsStop1259" offset="1" style="stop-opacity:1;stop-color:#e09aa3"></stop></linearGradient><clipPath id="SvgjsClipPath1258" clipPathUnits="userSpaceOnUse"><path id="SvgjsPath1257" d="m 3328.47,10245.8 h 372.5 v 545.801 h -372.5 z"></path></clipPath><linearGradient id="SvgjsLinearGradient1256" spreadMethod="pad" gradientTransform="matrix(2e-7,5059.73,-5059.73,2e-7,11991.7,5731.9)" gradientUnits="userSpaceOnUse" y2="0" x2="1" y1="0" x1="0"><stop id="SvgjsStop1255" offset="0" style="stop-opacity:1;stop-color:#fbcad1"></stop><stop id="SvgjsStop1254" offset="0.0837989" style="stop-opacity:1;stop-color:#fbcad1"></stop><stop id="SvgjsStop1253" offset="0.860335" style="stop-opacity:1;stop-color:#e09aa3"></stop><stop id="SvgjsStop1252" offset="1" style="stop-opacity:1;stop-color:#e09aa3"></stop></linearGradient><clipPath id="SvgjsClipPath1251" clipPathUnits="userSpaceOnUse"><path id="SvgjsPath1250" d="m 1957.24,10116.4 h 372.5 v 563.504 h -372.5 z"></path></clipPath><linearGradient id="SvgjsLinearGradient1249" spreadMethod="pad" gradientTransform="matrix(2e-7,5059.73,-5059.73,2e-7,11991.7,5731.9)" gradientUnits="userSpaceOnUse" y2="0" x2="1" y1="0" x1="0"><stop id="SvgjsStop1248" offset="0" style="stop-opacity:1;stop-color:#fbcad1"></stop><stop id="SvgjsStop1247" offset="0.0837989" style="stop-opacity:1;stop-color:#fbcad1"></stop><stop id="SvgjsStop1246" offset="0.860335" style="stop-opacity:1;stop-color:#e09aa3"></stop><stop id="SvgjsStop1245" offset="1" style="stop-opacity:1;stop-color:#e09aa3"></stop></linearGradient><clipPath id="SvgjsClipPath1244" clipPathUnits="userSpaceOnUse"><path id="SvgjsPath1243" d="m 23977.8,6811.6 h -1216 v 3519.9 h -271.3 V 6811.6 h -1332.1 v 3980 h 448.6 c -4,-156.1 6.2,-541.5 6.2,-561.8 0,-8.4 70.5,-11.2 164.5,-11.2 187.9,0 469.9,11.2 469.9,11.2 v 101.7 h 547.9 v -101.7 c 0,0 1085.1,0 1182.3,0 V 6811.6 m -2324,2397.6 v -389.5 h 372.5 v 389.5 h -372.5"></path></clipPath><clipPath id="SvgjsClipPath1242" clipPathUnits="userSpaceOnUse"><path id="SvgjsPath1241" d="m 20887.2,6811.6 h -933.3 v 3943.2 h -25.4 583.4 v -364.1 h 364.5 v 296.4 l 10.8,6.4 163.3,98.1 -163.3,-98.1 V 6811.6 m -604.7,2487 v -389.5 h 372.5 v 389.5 h -372.5"></path></clipPath><clipPath id="SvgjsClipPath1240" clipPathUnits="userSpaceOnUse"><path id="SvgjsPath1239" d="m 19682.6,6811.6 h -1172.8 v 3980 h 463.6 v -197.7 h 520.1 v 160.9 h 435 -245.9 V 6811.6 m -612,1317.6 v -389.4 h 372.5 v 389.4 h -372.5 m 0,627.5 v -389.5 h 372.5 v 389.5 h -372.5 m 0,647.2 v -389.5 h 372.5 v 389.5 h -372.5"></path></clipPath><clipPath id="SvgjsClipPath1238" clipPathUnits="userSpaceOnUse"><path id="SvgjsPath1237" d="m 17948.7,6811.6 h -1302.1 v 3934.7 h 1302.1 V 9169.4 c -88,247.1 -324,424 -601.4,424 h -23.2 c -352.5,0 -638.2,-285.7 -638.2,-638.1 V 7944 h 1262.8 v -149.6 h -1262.8 v -135.5 h 1262.8 v -847.3"></path></clipPath><clipPath id="SvgjsClipPath1236" clipPathUnits="userSpaceOnUse"><path id="SvgjsPath1235" d="m 16314.6,6811.6 h 332 v 3934.7 h -332 z"></path></clipPath><clipPath id="SvgjsClipPath1234" clipPathUnits="userSpaceOnUse"><path id="SvgjsPath1233" d="m 18238.5,6811.6 h -289.8 v 847.3 h 61.1 v 135.5 h -61.1 V 7944 h 36.8 v 1011.3 c 0,75.1 -13,147.2 -36.8,214.1 v 1576.9 h 320.2 v 45.3 -45.3 h -30.4 V 6811.6"></path></clipPath><clipPath id="SvgjsClipPath1232" clipPathUnits="userSpaceOnUse"><path id="SvgjsPath1231" d="m 15316.8,6811.6 h -765.9 v 3407 h -428.1 v -3407 h -918.4 v 972 h 425.6 v 2105.9 c 0,74.2 -12.6,145.4 -35.9,211.6 v 238.9 h 367.6 v -121.4 h 662.6 v 138.3 h 251.6 v -138.3 h 440.9 v -920 h -249.3 v -389.5 h 249.3 v -337.3 h -249.3 v -389.4 h 249.3 V 6811.6"></path></clipPath><clipPath id="SvgjsClipPath1230" clipPathUnits="userSpaceOnUse"><path id="SvgjsPath1229" d="m 15886.6,6811.6 h -569.8 v 1370.8 h 123.2 v 389.4 h -123.2 v 337.3 h 123.2 v 389.5 h -123.2 v 920 h 61.2 v 231.4 h 194.3 v 172.1 l 299.7,158.1 v 11.4 h 14.6 v -3980"></path></clipPath><clipPath id="SvgjsClipPath1228" clipPathUnits="userSpaceOnUse"><path id="SvgjsPath1227" d="m 13630,7783.6 h -425.6 v 1887.5 h -375.2 403.3 v 389.5 h 361.6 v 40.5 c 23.3,-66.2 35.9,-137.4 35.9,-211.6 V 7783.6"></path></clipPath><clipPath id="SvgjsClipPath1226" clipPathUnits="userSpaceOnUse"><path id="SvgjsPath1225" d="m 12776.4,6811.6 h -1569.3 v 395.8 h 445.9 v 1258.3 c 0,285.5 -187.4,527.1 -445.9,608.7 v 859.1 H 12332 c -1,-14.5 -1.5,-29.2 -1.5,-44 V 7783.6 h 445.9 v -972 m -937.2,2571.6 v -389.4 h 372.5 v 389.4 h -372.5"></path></clipPath><clipPath id="SvgjsClipPath1224" clipPathUnits="userSpaceOnUse"><path id="SvgjsPath1223" d="M 10779.1,6811.6 H 8666.7 v 2625.3 h 484.04 v 496.6 h 1628.36 v -865.9 c -248,-87.5 -425.6,-324 -425.6,-601.9 V 7207.4 h 425.6 V 6811.6 M 9677.12,9383.2 v -389.4 h 372.48 v 389.4 h -372.48"></path></clipPath><clipPath id="SvgjsClipPath1222" clipPathUnits="userSpaceOnUse"><path id="SvgjsPath1221" d="m 11207.1,6811.6 h -428 v 395.8 h 428 v -395.8 m -428,2256 v 865.9 h 428 v -859.1 c -60.6,19.1 -125.3,29.5 -192.2,29.5 h -23.3 c -74.5,0 -146.1,-12.8 -212.5,-36.3"></path></clipPath><clipPath id="SvgjsClipPath1220" clipPathUnits="userSpaceOnUse"><path id="SvgjsPath1219" d="m 12776.4,7783.6 h -445.9 v 2105.9 c 0,14.8 0.5,29.5 1.5,44 h 497.2 -52.8 V 7783.6"></path></clipPath><clipPath id="SvgjsClipPath1218" clipPathUnits="userSpaceOnUse"><path id="SvgjsPath1217" d="m 5.67188,6811.6 h 47.3633 V 9682.8 H 5.67188 Z"></path></clipPath><clipPath id="SvgjsClipPath1216" clipPathUnits="userSpaceOnUse"><path id="SvgjsPath1215" d="M 7336.86,6811.6 H 6034.83 v 2834.1 l -289.86,303 289.86,-303 h 552.33 v -208.8 h 749.7 V 6811.6 m -3281.85,0 H 53.0352 V 9682.8 H 1333.73 v 6.3 h 159.23 v 365.4 h 391.42 V 9737 h 2073.43 l 82.7,18.8 h 14.5 V 6811.6"></path></clipPath><clipPath id="SvgjsClipPath1214" clipPathUnits="userSpaceOnUse"><path id="SvgjsPath1213" d="M 1435.2,6804.5 H 4224 v 3259.2 H 1435.2 Z"></path></clipPath><clipPath id="SvgjsClipPath1212" clipPathUnits="userSpaceOnUse"><path id="SvgjsPath1211" d="M 7336.86,6811.6 H 6034.83 v 2834.1 l -289.86,303 289.86,-303 h 552.33 v -208.8 h 749.7 V 6811.6 m -3281.85,0 H 53.0352 V 9682.8 H 1333.73 v 6.3 h 159.23 v 365.4 h 391.42 V 9737 h 2073.43 l 82.7,18.8 h 14.5 V 6811.6"></path></clipPath><clipPath id="SvgjsClipPath1210" clipPathUnits="userSpaceOnUse"><path id="SvgjsPath1209" d="m 5596.8,9722.9 h 705.598 v 340.801 H 5596.8 Z"></path></clipPath><clipPath id="SvgjsClipPath1208" clipPathUnits="userSpaceOnUse"><path id="SvgjsPath1207" d="M 7336.86,6811.6 H 6034.83 v 2834.1 l -289.86,303 289.86,-303 h 552.33 v -208.8 h 749.7 V 6811.6 m -3281.85,0 H 53.0352 V 9682.8 H 1333.73 v 6.3 h 159.23 v 365.4 h 391.42 V 9737 h 2073.43 l 82.7,18.8 h 14.5 V 6811.6"></path></clipPath><clipPath id="SvgjsClipPath1206" clipPathUnits="userSpaceOnUse"><path id="SvgjsPath1205" d="M 48,6804.5 H 1449.6 V 9737.3 H 48 Z"></path></clipPath><clipPath id="SvgjsClipPath1204" clipPathUnits="userSpaceOnUse"><path id="SvgjsPath1203" d="M 7336.86,6811.6 H 6034.83 v 2834.1 l -289.86,303 289.86,-303 h 552.33 v -208.8 h 749.7 V 6811.6 m -3281.85,0 H 53.0352 V 9682.8 H 1333.73 v 6.3 h 159.23 v 365.4 h 391.42 V 9737 h 2073.43 l 82.7,18.8 h 14.5 V 6811.6"></path></clipPath><clipPath id="SvgjsClipPath1202" clipPathUnits="userSpaceOnUse"><path id="SvgjsPath1201" d="M 5942.4,6804.5 H 7344 V 9737.3 H 5942.4 Z"></path></clipPath><clipPath id="SvgjsClipPath1200" clipPathUnits="userSpaceOnUse"><path id="SvgjsPath1199" d="m 1333.73,9689.1 h 159.23 v 365.398 h -159.23 z"></path></clipPath><clipPath id="SvgjsClipPath1198" clipPathUnits="userSpaceOnUse"><path id="SvgjsPath1197" d="m 4055.01,9755.8 h -14.5 l 14.5,3.2 245.88,55.8 -245.88,-55.8 v -3.2"></path></clipPath><clipPath id="SvgjsClipPath1196" clipPathUnits="userSpaceOnUse"><path id="SvgjsPath1195" d="m 21158.4,6811.6 h -271.2 v 3881.9 l 163.3,98.1 h 107.9 v -3980"></path></clipPath><clipPath id="SvgjsClipPath1194" clipPathUnits="userSpaceOnUse"><path id="SvgjsPath1193" d="m 22490.5,6811.6 h 271.301 v 3519.9 H 22490.5 Z"></path></clipPath><clipPath id="SvgjsClipPath1192" clipPathUnits="userSpaceOnUse"><path id="SvgjsPath1191" d="m 18379.6,6811.6 h 130.199 v 3980 H 18379.6 Z"></path></clipPath><clipPath id="SvgjsClipPath1190" clipPathUnits="userSpaceOnUse"><path id="SvgjsPath1189" d="m 18379.6,6811.6 h -141.1 v 3934.7 h 30.4 v 45.3 h 110.7 v -3980"></path></clipPath><clipPath id="SvgjsClipPath1188" clipPathUnits="userSpaceOnUse"><path id="SvgjsPath1187" d="m 19928.5,6811.6 h 25.402 v 3943.2 h -25.402 z"></path></clipPath><clipPath id="SvgjsClipPath1186" clipPathUnits="userSpaceOnUse"><path id="SvgjsPath1185" d="m 19682.6,6811.6 h 245.898 v 3943.2 H 19682.6 Z"></path></clipPath><clipPath id="SvgjsClipPath1184" clipPathUnits="userSpaceOnUse"><path id="SvgjsPath1183" d="m 16314.6,6811.6 h -428 v 3980 h 428 v -45.3 -3934.7"></path></clipPath><clipPath id="SvgjsClipPath1182" clipPathUnits="userSpaceOnUse"><path id="SvgjsPath1181" d="m 14122.8,6811.6 h 428.098 v 3407 H 14122.8 Z"></path></clipPath><clipPath id="SvgjsClipPath1180" clipPathUnits="userSpaceOnUse"><path id="SvgjsPath1179" d="m 12776.4,6811.6 h 427.996 v 972 H 12776.4 Z"></path></clipPath><clipPath id="SvgjsClipPath1178" clipPathUnits="userSpaceOnUse"><path id="SvgjsPath1177" d="m 13204.4,7783.6 h -428 v 2149.9 h 52.8 v -262.4 h 375.2 V 7783.6"></path></clipPath><clipPath id="SvgjsClipPath1176" clipPathUnits="userSpaceOnUse"><path id="SvgjsPath1175" d="M 5603.94,6811.6 H 4055.01 v 2944.2 h 245.88 v 59 L 5473.7,10081 v -217 h 130.24 V 6811.6 m -815.79,2163.9 c -270.74,0 -490.21,-219.5 -490.21,-490.2 V 7335.8 h 998.28 v 1149.5 c 0,270.7 -219.47,490.2 -490.2,490.2 h -17.87"></path></clipPath><clipPath id="SvgjsClipPath1174" clipPathUnits="userSpaceOnUse"><path id="SvgjsPath1173" d="M 5603.94,9864 H 5473.7 v 217 l 118.93,27 11.31,-11.8 V 9864"></path></clipPath><clipPath id="SvgjsClipPath1172" clipPathUnits="userSpaceOnUse"><path id="SvgjsPath1171" d="m 4300.89,9755.8 h -245.88 v 3.2 l 245.88,55.8 v -59"></path></clipPath><clipPath id="SvgjsClipPath1170" clipPathUnits="userSpaceOnUse"><path id="SvgjsPath1169" d="M 8666.7,6811.6 H 7336.86 v 2862.3 h 332.02 v -8.5 h 428.05 v 8.5 h 569.77 v -237 -2625.3 m -851.17,958.3 v -389.4 h 372.5 v 389.4 h -372.5 m 0,627.5 v -389.5 h 372.5 v 389.5 h -372.5 m 0,647.2 v -389.5 h 372.5 v 389.5 h -372.5"></path></clipPath><clipPath id="SvgjsClipPath1168" clipPathUnits="userSpaceOnUse"><path id="SvgjsPath1167" d="m 7668.88,9665.4 h 428.051 v 8.5 H 7668.88 Z"></path></clipPath><clipPath id="SvgjsClipPath1166" clipPathUnits="userSpaceOnUse"><path id="SvgjsPath1165" d="M 6034.83,6811.6 H 5603.94 V 9864 h 141.03 v 84.7 l 289.86,-303 V 6811.6"></path></clipPath><clipPath id="SvgjsClipPath1164" clipPathUnits="userSpaceOnUse"><path id="SvgjsPath1163" d="m 5744.97,9864 h -141.03 v 232.2 l 141.03,-147.5 V 9864"></path></clipPath><clipPath id="SvgjsClipPath1162" clipPathUnits="userSpaceOnUse"><path id="SvgjsPath1161" d="m 11653,7207.4 h -445.9 v 1867 c 258.5,-81.6 445.9,-323.2 445.9,-608.7 V 7207.4"></path></clipPath><clipPath id="SvgjsClipPath1160" clipPathUnits="userSpaceOnUse"><path id="SvgjsPath1159" d="m 10779.1,7207.4 h -425.6 v 1258.3 c 0,277.9 177.6,514.4 425.6,601.9 V 7207.4"></path></clipPath><clipPath id="SvgjsClipPath1158" clipPathUnits="userSpaceOnUse"><path id="SvgjsPath1157" d="m 11207.1,7207.4 h -428 v 1860.2 c 66.4,23.5 138,36.3 212.5,36.3 h 23.3 c 66.9,0 131.6,-10.4 192.2,-29.5 v -1867"></path></clipPath><clipPath id="SvgjsClipPath1156" clipPathUnits="userSpaceOnUse"><path id="SvgjsPath1155" d="m 5296.22,7335.8 h -998.28 v 1149.5 c 0,270.7 219.47,490.2 490.21,490.2 h 17.87 c 270.73,0 490.2,-219.5 490.2,-490.2 V 7335.8"></path></clipPath><clipPath id="SvgjsClipPath1154" clipPathUnits="userSpaceOnUse"><path id="SvgjsPath1153" d="m 17948.7,7944 h -1262.8 v 1011.3 c 0,352.4 285.7,638.1 638.2,638.1 h 23.2 c 277.4,0 513.4,-176.9 601.4,-424 V 7944"></path></clipPath><clipPath id="SvgjsClipPath1152" clipPathUnits="userSpaceOnUse"><path id="SvgjsPath1151" d="m 17985.5,7944 h -36.8 v 1225.4 c 23.8,-66.9 36.8,-139 36.8,-214.1 V 7944"></path></clipPath><clipPath id="SvgjsClipPath1150" clipPathUnits="userSpaceOnUse"><path id="SvgjsPath1149" d="m 16685.9,7658.9 h 1262.8 v 135.504 h -1262.8 z"></path></clipPath><clipPath id="SvgjsClipPath1148" clipPathUnits="userSpaceOnUse"><path id="SvgjsPath1147" d="m 17948.7,7658.9 h 61.102 v 135.504 h -61.102 z"></path></clipPath><clipPath id="SvgjsClipPath1146" clipPathUnits="userSpaceOnUse"><path id="SvgjsPath1145" d="m 9677.12,8993.8 h 372.48 v 389.398 h -372.48 z"></path></clipPath><clipPath id="SvgjsClipPath1144" clipPathUnits="userSpaceOnUse"><path id="SvgjsPath1143" d="m 7815.53,8655.1 h 372.5 v 389.5 h -372.5 z"></path></clipPath><clipPath id="SvgjsClipPath1142" clipPathUnits="userSpaceOnUse"><path id="SvgjsPath1141" d="m 7815.53,8007.9 h 372.5 v 389.504 h -372.5 z"></path></clipPath><clipPath id="SvgjsClipPath1140" clipPathUnits="userSpaceOnUse"><path id="SvgjsPath1139" d="m 7815.53,7380.5 h 372.5 v 389.402 h -372.5 z"></path></clipPath><clipPath id="SvgjsClipPath1138" clipPathUnits="userSpaceOnUse"><path id="SvgjsPath1137" d="m 19070.6,9014.4 h 372.5 v 389.496 h -372.5 z"></path></clipPath><clipPath id="SvgjsClipPath1136" clipPathUnits="userSpaceOnUse"><path id="SvgjsPath1135" d="m 19070.6,8367.2 h 372.5 v 389.5 h -372.5 z"></path></clipPath><clipPath id="SvgjsClipPath1134" clipPathUnits="userSpaceOnUse"><path id="SvgjsPath1133" d="m 19070.6,7739.8 h 372.5 v 389.398 h -372.5 z"></path></clipPath><clipPath id="SvgjsClipPath1132" clipPathUnits="userSpaceOnUse"><path id="SvgjsPath1131" d="m 11839.2,8993.8 h 372.5 v 389.398 h -372.5 z"></path></clipPath><clipPath id="SvgjsClipPath1130" clipPathUnits="userSpaceOnUse"><path id="SvgjsPath1129" d="m 15067.5,8909.1 h 249.301 v 389.5 H 15067.5 Z"></path></clipPath><clipPath id="SvgjsClipPath1128" clipPathUnits="userSpaceOnUse"><path id="SvgjsPath1127" d="m 15316.8,8909.1 h 123.199 v 389.5 H 15316.8 Z"></path></clipPath><clipPath id="SvgjsClipPath1126" clipPathUnits="userSpaceOnUse"><path id="SvgjsPath1125" d="m 20282.5,8909.1 h 372.5 v 389.5 h -372.5 z"></path></clipPath><clipPath id="SvgjsClipPath1124" clipPathUnits="userSpaceOnUse"><path id="SvgjsPath1123" d="m 21653.8,8819.7 h 372.5 v 389.5 h -372.5 z"></path></clipPath><clipPath id="SvgjsClipPath1122" clipPathUnits="userSpaceOnUse"><path id="SvgjsPath1121" d="m 15067.5,8182.4 h 249.301 v 389.398 H 15067.5 Z"></path></clipPath><clipPath id="SvgjsClipPath1120" clipPathUnits="userSpaceOnUse"><path id="SvgjsPath1119" d="m 15316.8,8182.4 h 123.199 v 389.398 H 15316.8 Z"></path></clipPath><clipPath id="SvgjsClipPath1118" clipPathUnits="userSpaceOnUse"><path id="SvgjsPath1117" d="m 15598.4,16102.6 c 0,0 987.3,1107.5 2082.5,0 0,0 1041,1776.5 3333,0 0,0 596.2,484.7 1695.8,0 0,0 -5054.8,-503.4 -7111.3,0 z"></path></clipPath><linearGradient id="SvgjsLinearGradient1116" spreadMethod="pad" gradientTransform="matrix(0,-1180.15,-1180.15,0,19154,17031.7)" gradientUnits="userSpaceOnUse" y2="0" x2="1" y1="0" x1="0"><stop id="SvgjsStop1115" offset="0" style="stop-opacity:1;stop-color:#ffffff"></stop><stop id="SvgjsStop1114" offset="0.0738916" style="stop-opacity:1;stop-color:#ffffff"></stop><stop id="SvgjsStop1113" offset="0.842365" style="stop-opacity:1;stop-color:#fcd1d8"></stop><stop id="SvgjsStop1112" offset="1" style="stop-opacity:1;stop-color:#fcd1d8"></stop></linearGradient><clipPath id="SvgjsClipPath1111" clipPathUnits="userSpaceOnUse"><path id="SvgjsPath1110" d="m 22185.7,22126.5 c 0,0 -1176.5,1319.8 -2481.7,0 0,0 -1240.4,2117 -3971.7,0 0,0 -710.3,577.6 -2020.6,0 0,0 6023.3,-599.8 8474,0 z"></path></clipPath><linearGradient id="SvgjsLinearGradient1109" spreadMethod="pad" gradientTransform="matrix(0,-908.056,-908.056,0,17948.7,22824.3)" gradientUnits="userSpaceOnUse" y2="0" x2="1" y1="0" x1="0"><stop id="SvgjsStop1108" offset="0" style="stop-opacity:1;stop-color:#ffffff"></stop><stop id="SvgjsStop1107" offset="0.0738916" style="stop-opacity:1;stop-color:#ffffff"></stop><stop id="SvgjsStop1106" offset="0.842365" style="stop-opacity:1;stop-color:#fcd1d8"></stop><stop id="SvgjsStop1105" offset="1" style="stop-opacity:1;stop-color:#fcd1d8"></stop></linearGradient><clipPath id="SvgjsClipPath1104" clipPathUnits="userSpaceOnUse"><path id="SvgjsPath1103" d="m 8168.28,14781 c 0,0 -936.08,1050.1 -1974.53,0 0,0 -986.96,1684.4 -3160.1,0 0,0 -565.2,459.6 -1607.76,0 0,0 4792.51,-477.3 6742.39,0 z"></path></clipPath><linearGradient id="SvgjsLinearGradient1102" spreadMethod="pad" gradientTransform="matrix(0,-2219.56,-2219.56,0,4797.08,16335.5)" gradientUnits="userSpaceOnUse" y2="0" x2="1" y1="0" x1="0"><stop id="SvgjsStop1101" offset="0" style="stop-opacity:1;stop-color:#ffffff"></stop><stop id="SvgjsStop1100" offset="0.0738916" style="stop-opacity:1;stop-color:#ffffff"></stop><stop id="SvgjsStop1099" offset="0.842365" style="stop-opacity:1;stop-color:#fcd1d8"></stop><stop id="SvgjsStop1098" offset="1" style="stop-opacity:1;stop-color:#fcd1d8"></stop></linearGradient><clipPath id="SvgjsClipPath1097" clipPathUnits="userSpaceOnUse"><path id="SvgjsPath1096" d="m 1236.69,21522.8 c 0,0 1176.48,1319.7 2481.64,0 0,0 1240.44,2116.9 3971.69,0 0,0 710.37,577.6 2020.69,0 0,0 -6023.36,-599.9 -8474.02,0 z"></path></clipPath><linearGradient id="SvgjsLinearGradient1095" spreadMethod="pad" gradientTransform="matrix(0,-1979.6,-1979.6,0,5473.7,23109.9)" gradientUnits="userSpaceOnUse" y2="0" x2="1" y1="0" x1="0"><stop id="SvgjsStop1094" offset="0" style="stop-opacity:1;stop-color:#ffffff"></stop><stop id="SvgjsStop1093" offset="0.0738916" style="stop-opacity:1;stop-color:#ffffff"></stop><stop id="SvgjsStop1092" offset="0.842365" style="stop-opacity:1;stop-color:#fcd1d8"></stop><stop id="SvgjsStop1091" offset="1" style="stop-opacity:1;stop-color:#fcd1d8"></stop></linearGradient><clipPath id="SvgjsClipPath1090" clipPathUnits="userSpaceOnUse"><path id="SvgjsPath1089" d="M 24000,0 H 5 L 0,6811.6 H 23995 L 24000,0 m -16843.56,3675.6 -285.71,-130.4 -275.8,-125.9 48.59,-2.8 -91.93,-42 48.59,-2.9 c -302.56,-292.6 776.49,-411.2 776.49,-411.2 l 228.89,92.6 758.55,-44.5 844.16,340.3 170.99,94.7 3.89,-0.2 700.95,266.6 350,-19.7 783.2,289.1 390.1,261.2 -118,4.1 1384.2,526.6 288.5,-16.9 1114.8,429.2 38.7,60.8 156.6,71.5 222.2,211.5 -991.2,48 618.5,-26.2 23.4,63.3 74.7,-5.9 903.1,349.5 -518.1,30.4 518.1,-30.4 55.8,125.7 -331,15.6 181,82.6 -752.3,43.2 0.7,0.3 751.6,-43.5 45.3,88.6 -129.8,7.6 111.5,50.9 -35.8,41.5 -458.5,27 -0.3,-0.2 c -18.5,0.6 -78.9,2.4 -171.6,2.4 -333.6,0 -1084.9,-22.5 -1799,-200.9 l -28.1,-12.8 -25.8,1.5 -30.2,-13.8 -34.3,2 -30.2,-13.8 -408.9,-186.6 36.4,-2.2 -114.3,-52.1 34.5,-2 -16.8,-7.9 v 0 c -1162,59.3 -2240.03,83 -3220.46,83 -3897.63,0 -6256.89,-374.2 -6256.89,-374.2 l -833.82,-168.5 -295.95,-235.2 c 0,0 -352.91,-950.6 5980.66,-1461.4 -59.02,-7.7 -115.95,-16.5 -169.82,-26.9 l -45.97,-20.9 -48.59,2.8 -76.93,-35.1 -48.59,2.9 m 1683.27,-200.4 -219.69,12.9 95.71,-5.7 123.98,-7.2 m 4630.09,2740.1 c 195.5,10.1 411.7,17.5 627.5,17.5 121.8,0 243.4,-2.4 361.2,-7.9 l -0.7,-0.4 h 0.5 c -3.9,0.1 -7.8,0.2 -11.6,0.3 h -0.5 v 0 c -121,3.1 -238.2,4.4 -350.6,4.4 -230.8,0 -441.8,-5.7 -625.8,-13.9"></path></clipPath><linearGradient id="SvgjsLinearGradient1088" spreadMethod="pad" gradientTransform="matrix(29033.8,119.975,119.975,-29033.8,-2913.4,3344.2)" gradientUnits="userSpaceOnUse" y2="0" x2="1" y1="0" x1="0"><stop id="SvgjsStop1087" offset="0" style="stop-opacity:1;stop-color:#a51b26"></stop><stop id="SvgjsStop1086" offset="0.0837989" style="stop-opacity:1;stop-color:#a51b26"></stop><stop id="SvgjsStop1085" offset="0.860335" style="stop-opacity:1;stop-color:#d4504d"></stop><stop id="SvgjsStop1084" offset="1" style="stop-opacity:1;stop-color:#d4504d"></stop></linearGradient><clipPath id="SvgjsClipPath1083" clipPathUnits="userSpaceOnUse"><path id="SvgjsPath1082" d="m 15322.9,5956 -518.1,30.4 242.9,110.9 331,-15.6 -55.8,-125.7"></path></clipPath><linearGradient id="SvgjsLinearGradient1081" spreadMethod="pad" gradientTransform="matrix(29033.8,119.975,119.975,-29033.8,-2913.4,3344.2)" gradientUnits="userSpaceOnUse" y2="0" x2="1" y1="0" x1="0"><stop id="SvgjsStop1080" offset="0" style="stop-opacity:1;stop-color:#88181d"></stop><stop id="SvgjsStop1079" offset="0.0837989" style="stop-opacity:1;stop-color:#88181d"></stop><stop id="SvgjsStop1078" offset="0.860335" style="stop-opacity:1;stop-color:#ad2c2f"></stop><stop id="SvgjsStop1077" offset="1" style="stop-opacity:1;stop-color:#ad2c2f"></stop></linearGradient><clipPath id="SvgjsClipPath1076" clipPathUnits="userSpaceOnUse"><path id="SvgjsPath1075" d="m 15228.7,6179.9 -751.6,43.5 1.3,0.6 v 0 l 140,83 525.8,-30.9 v 0 l 129.8,-7.6 -45.3,-88.6 m -750.3,44.1 c -6.8,0.2 -13.5,0.3 -20.1,0.5 h -0.5 l 0.7,0.4 c 6.7,-0.3 13.3,-0.6 19.9,-0.9"></path></clipPath><linearGradient id="SvgjsLinearGradient1074" spreadMethod="pad" gradientTransform="matrix(29033.8,119.975,119.975,-29033.8,-2913.4,3344.2)" gradientUnits="userSpaceOnUse" y2="0" x2="1" y1="0" x1="0"><stop id="SvgjsStop1073" offset="0" style="stop-opacity:1;stop-color:#88181d"></stop><stop id="SvgjsStop1072" offset="0.0837989" style="stop-opacity:1;stop-color:#88181d"></stop><stop id="SvgjsStop1071" offset="0.860335" style="stop-opacity:1;stop-color:#ad2c2f"></stop><stop id="SvgjsStop1070" offset="1" style="stop-opacity:1;stop-color:#ad2c2f"></stop></linearGradient><clipPath id="SvgjsClipPath1069" clipPathUnits="userSpaceOnUse"><path id="SvgjsPath1068" d="m 15144.2,6276.1 -525.8,30.9 88.1,52.2 549.2,-32.2 -111.5,-50.9 v 0"></path></clipPath><linearGradient id="SvgjsLinearGradient1067" spreadMethod="pad" gradientTransform="matrix(29033.8,119.975,119.975,-29033.8,-2913.4,3344.2)" gradientUnits="userSpaceOnUse" y2="0" x2="1" y1="0" x1="0"><stop id="SvgjsStop1066" offset="0" style="stop-opacity:1;stop-color:#88181d"></stop><stop id="SvgjsStop1065" offset="0.0837989" style="stop-opacity:1;stop-color:#88181d"></stop><stop id="SvgjsStop1064" offset="0.860335" style="stop-opacity:1;stop-color:#ad2c2f"></stop><stop id="SvgjsStop1063" offset="1" style="stop-opacity:1;stop-color:#ad2c2f"></stop></linearGradient><clipPath id="SvgjsClipPath1062" clipPathUnits="userSpaceOnUse"><path id="SvgjsPath1061" d="m 15255.7,6327 v 0 m 0,0 -549.2,32.2 60.6,35.9 c 0,0 -2,0.1 -6,0.2 l 0.3,0.2 458.5,-27 35.8,-41.5"></path></clipPath><linearGradient id="SvgjsLinearGradient1060" spreadMethod="pad" gradientTransform="matrix(29033.8,119.975,119.975,-29033.8,-2913.4,3344.2)" gradientUnits="userSpaceOnUse" y2="0" x2="1" y1="0" x1="0"><stop id="SvgjsStop1059" offset="0" style="stop-opacity:1;stop-color:#88181d"></stop><stop id="SvgjsStop1058" offset="0.0837989" style="stop-opacity:1;stop-color:#88181d"></stop><stop id="SvgjsStop1057" offset="0.860335" style="stop-opacity:1;stop-color:#ad2c2f"></stop><stop id="SvgjsStop1056" offset="1" style="stop-opacity:1;stop-color:#ad2c2f"></stop></linearGradient><clipPath id="SvgjsClipPath1055" clipPathUnits="userSpaceOnUse"><path id="SvgjsPath1054" d="m 7376.67,2960.4 c 0,0 -1079.05,118.6 -776.49,411.2 l -48.59,2.9 91.93,42 -48.59,2.8 275.8,125.9 285.71,130.4 48.59,-2.9 76.93,35.1 48.59,-2.8 45.97,20.9 c 53.87,10.4 110.8,19.2 169.82,26.9 -6333.57,510.8 -5980.66,1461.4 -5980.66,1461.4 l 295.95,235.2 833.82,168.5 c 0,0 2359.26,374.2 6256.89,374.2 980.43,0 2058.46,-23.7 3220.46,-83 v 0 l 16.8,7.9 -34.5,2 114.3,52.1 -36.4,2.2 408.9,186.6 30.2,13.8 34.3,-2 30.2,13.8 25.8,-1.5 28.1,12.8 c 714.1,178.4 1465.4,200.9 1799,200.9 92.7,0 153.1,-1.8 171.6,-2.4 4,-0.1 6,-0.2 6,-0.2 l -60.6,-35.9 -88.1,-52.2 -140,-83 v 0 l -1.3,-0.6 -0.7,-0.3 752.3,-43.2 -181,-82.6 -242.9,-110.9 518.1,-30.4 -903.1,-349.5 -74.7,5.9 -23.4,-63.3 -618.5,26.2 991.2,-48 -222.2,-211.5 -156.6,-71.5 -38.7,-60.8 -1114.8,-429.2 -288.5,16.9 -1384.2,-526.6 118,-4.1 -390.1,-261.2 -783.2,-289.1 -350,19.7 -700.95,-266.6 -3.89,0.2 -170.99,-94.7 -844.16,-340.3 -758.55,44.5 -228.89,-92.6 m 1243.35,527.7 219.69,-12.9 -123.98,7.2 -95.71,5.7 m 5477.28,2744.7 c -215.8,0 -432,-7.4 -627.5,-17.5 184,8.2 395,13.9 625.8,13.9 112.4,0 229.6,-1.3 350.6,-4.4 v 0 h 0.5 c 3.8,-0.1 7.7,-0.2 11.6,-0.3 6.6,-0.2 13.3,-0.3 20.1,-0.5 -6.6,0.3 -13.2,0.6 -19.9,0.9 -117.8,5.5 -239.4,7.9 -361.2,7.9"></path></clipPath><clipPath id="SvgjsClipPath1053" clipPathUnits="userSpaceOnUse"><path id="SvgjsPath1052" d="M 12139.2,4673.3 H 13920 v 1732.8 h -1780.8 z"></path></clipPath><clipPath id="SvgjsClipPath1051" clipPathUnits="userSpaceOnUse"><path id="SvgjsPath1050" d="m 7376.67,2960.4 c 0,0 -1079.05,118.6 -776.49,411.2 l -48.59,2.9 91.93,42 -48.59,2.8 275.8,125.9 285.71,130.4 48.59,-2.9 76.93,35.1 48.59,-2.8 45.97,20.9 c 53.87,10.4 110.8,19.2 169.82,26.9 -6333.57,510.8 -5980.66,1461.4 -5980.66,1461.4 l 295.95,235.2 833.82,168.5 c 0,0 2359.26,374.2 6256.89,374.2 980.43,0 2058.46,-23.7 3220.46,-83 v 0 l 16.8,7.9 -34.5,2 114.3,52.1 -36.4,2.2 408.9,186.6 30.2,13.8 34.3,-2 30.2,13.8 25.8,-1.5 28.1,12.8 c 714.1,178.4 1465.4,200.9 1799,200.9 92.7,0 153.1,-1.8 171.6,-2.4 4,-0.1 6,-0.2 6,-0.2 l -60.6,-35.9 -88.1,-52.2 -140,-83 v 0 l -1.3,-0.6 -0.7,-0.3 752.3,-43.2 -181,-82.6 -242.9,-110.9 518.1,-30.4 -903.1,-349.5 -74.7,5.9 -23.4,-63.3 -618.5,26.2 991.2,-48 -222.2,-211.5 -156.6,-71.5 -38.7,-60.8 -1114.8,-429.2 -288.5,16.9 -1384.2,-526.6 118,-4.1 -390.1,-261.2 -783.2,-289.1 -350,19.7 -700.95,-266.6 -3.89,0.2 -170.99,-94.7 -844.16,-340.3 -758.55,44.5 -228.89,-92.6 m 1243.35,527.7 219.69,-12.9 -123.98,7.2 -95.71,5.7 m 5477.28,2744.7 c -215.8,0 -432,-7.4 -627.5,-17.5 184,8.2 395,13.9 625.8,13.9 112.4,0 229.6,-1.3 350.6,-4.4 v 0 h 0.5 c 3.8,-0.1 7.7,-0.2 11.6,-0.3 6.6,-0.2 13.3,-0.3 20.1,-0.5 -6.6,0.3 -13.2,0.6 -19.9,0.9 -117.8,5.5 -239.4,7.9 -361.2,7.9"></path></clipPath><clipPath id="SvgjsClipPath1049" clipPathUnits="userSpaceOnUse"><path id="SvgjsPath1048" d="M 13905.6,5359.7 H 14976 v 1046.4 h -1070.4 z"></path></clipPath><clipPath id="SvgjsClipPath1047" clipPathUnits="userSpaceOnUse"><path id="SvgjsPath1046" d="m 7376.67,2960.4 c 0,0 -1079.05,118.6 -776.49,411.2 l -48.59,2.9 91.93,42 -48.59,2.8 275.8,125.9 285.71,130.4 48.59,-2.9 76.93,35.1 48.59,-2.8 45.97,20.9 c 53.87,10.4 110.8,19.2 169.82,26.9 -6333.57,510.8 -5980.66,1461.4 -5980.66,1461.4 l 295.95,235.2 833.82,168.5 c 0,0 2359.26,374.2 6256.89,374.2 980.43,0 2058.46,-23.7 3220.46,-83 v 0 l 16.8,7.9 -34.5,2 114.3,52.1 -36.4,2.2 408.9,186.6 30.2,13.8 34.3,-2 30.2,13.8 25.8,-1.5 28.1,12.8 c 714.1,178.4 1465.4,200.9 1799,200.9 92.7,0 153.1,-1.8 171.6,-2.4 4,-0.1 6,-0.2 6,-0.2 l -60.6,-35.9 -88.1,-52.2 -140,-83 v 0 l -1.3,-0.6 -0.7,-0.3 752.3,-43.2 -181,-82.6 -242.9,-110.9 518.1,-30.4 -903.1,-349.5 -74.7,5.9 -23.4,-63.3 -618.5,26.2 991.2,-48 -222.2,-211.5 -156.6,-71.5 -38.7,-60.8 -1114.8,-429.2 -288.5,16.9 -1384.2,-526.6 118,-4.1 -390.1,-261.2 -783.2,-289.1 -350,19.7 -700.95,-266.6 -3.89,0.2 -170.99,-94.7 -844.16,-340.3 -758.55,44.5 -228.89,-92.6 m 1243.35,527.7 219.69,-12.9 -123.98,7.2 -95.71,5.7 m 5477.28,2744.7 c -215.8,0 -432,-7.4 -627.5,-17.5 184,8.2 395,13.9 625.8,13.9 112.4,0 229.6,-1.3 350.6,-4.4 v 0 h 0.5 c 3.8,-0.1 7.7,-0.2 11.6,-0.3 6.6,-0.2 13.3,-0.3 20.1,-0.5 -6.6,0.3 -13.2,0.6 -19.9,0.9 -117.8,5.5 -239.4,7.9 -361.2,7.9"></path></clipPath><clipPath id="SvgjsClipPath1045" clipPathUnits="userSpaceOnUse"><path id="SvgjsPath1044" d="m 14961.6,5705.3 h 369.598 v 700.801 H 14961.6 Z"></path></clipPath><clipPath id="SvgjsClipPath1043" clipPathUnits="userSpaceOnUse"><path id="SvgjsPath1042" d="m 7376.67,2960.4 c 0,0 -1079.05,118.6 -776.49,411.2 l -48.59,2.9 91.93,42 -48.59,2.8 275.8,125.9 285.71,130.4 48.59,-2.9 76.93,35.1 48.59,-2.8 45.97,20.9 c 53.87,10.4 110.8,19.2 169.82,26.9 -6333.57,510.8 -5980.66,1461.4 -5980.66,1461.4 l 295.95,235.2 833.82,168.5 c 0,0 2359.26,374.2 6256.89,374.2 980.43,0 2058.46,-23.7 3220.46,-83 v 0 l 16.8,7.9 -34.5,2 114.3,52.1 -36.4,2.2 408.9,186.6 30.2,13.8 34.3,-2 30.2,13.8 25.8,-1.5 28.1,12.8 c 714.1,178.4 1465.4,200.9 1799,200.9 92.7,0 153.1,-1.8 171.6,-2.4 4,-0.1 6,-0.2 6,-0.2 l -60.6,-35.9 -88.1,-52.2 -140,-83 v 0 l -1.3,-0.6 -0.7,-0.3 752.3,-43.2 -181,-82.6 -242.9,-110.9 518.1,-30.4 -903.1,-349.5 -74.7,5.9 -23.4,-63.3 -618.5,26.2 991.2,-48 -222.2,-211.5 -156.6,-71.5 -38.7,-60.8 -1114.8,-429.2 -288.5,16.9 -1384.2,-526.6 118,-4.1 -390.1,-261.2 -783.2,-289.1 -350,19.7 -700.95,-266.6 -3.89,0.2 -170.99,-94.7 -844.16,-340.3 -758.55,44.5 -228.89,-92.6 m 1243.35,527.7 219.69,-12.9 -123.98,7.2 -95.71,5.7 m 5477.28,2744.7 c -215.8,0 -432,-7.4 -627.5,-17.5 184,8.2 395,13.9 625.8,13.9 112.4,0 229.6,-1.3 350.6,-4.4 v 0 h 0.5 c 3.8,-0.1 7.7,-0.2 11.6,-0.3 6.6,-0.2 13.3,-0.3 20.1,-0.5 -6.6,0.3 -13.2,0.6 -19.9,0.9 -117.8,5.5 -239.4,7.9 -361.2,7.9"></path></clipPath><clipPath id="SvgjsClipPath1041" clipPathUnits="userSpaceOnUse"><path id="SvgjsPath1040" d="m 3321.6,3982.1 h 8481.6 V 6060.5 H 3321.6 Z"></path></clipPath><clipPath id="SvgjsClipPath1039" clipPathUnits="userSpaceOnUse"><path id="SvgjsPath1038" d="m 7376.67,2960.4 c 0,0 -1079.05,118.6 -776.49,411.2 l -48.59,2.9 91.93,42 -48.59,2.8 275.8,125.9 285.71,130.4 48.59,-2.9 76.93,35.1 48.59,-2.8 45.97,20.9 c 53.87,10.4 110.8,19.2 169.82,26.9 -6333.57,510.8 -5980.66,1461.4 -5980.66,1461.4 l 295.95,235.2 833.82,168.5 c 0,0 2359.26,374.2 6256.89,374.2 980.43,0 2058.46,-23.7 3220.46,-83 v 0 l 16.8,7.9 -34.5,2 114.3,52.1 -36.4,2.2 408.9,186.6 30.2,13.8 34.3,-2 30.2,13.8 25.8,-1.5 28.1,12.8 c 714.1,178.4 1465.4,200.9 1799,200.9 92.7,0 153.1,-1.8 171.6,-2.4 4,-0.1 6,-0.2 6,-0.2 l -60.6,-35.9 -88.1,-52.2 -140,-83 v 0 l -1.3,-0.6 -0.7,-0.3 752.3,-43.2 -181,-82.6 -242.9,-110.9 518.1,-30.4 -903.1,-349.5 -74.7,5.9 -23.4,-63.3 -618.5,26.2 991.2,-48 -222.2,-211.5 -156.6,-71.5 -38.7,-60.8 -1114.8,-429.2 -288.5,16.9 -1384.2,-526.6 118,-4.1 -390.1,-261.2 -783.2,-289.1 -350,19.7 -700.95,-266.6 -3.89,0.2 -170.99,-94.7 -844.16,-340.3 -758.55,44.5 -228.89,-92.6 m 1243.35,527.7 219.69,-12.9 -123.98,7.2 -95.71,5.7 m 5477.28,2744.7 c -215.8,0 -432,-7.4 -627.5,-17.5 184,8.2 395,13.9 625.8,13.9 112.4,0 229.6,-1.3 350.6,-4.4 v 0 h 0.5 c 3.8,-0.1 7.7,-0.2 11.6,-0.3 6.6,-0.2 13.3,-0.3 20.1,-0.5 -6.6,0.3 -13.2,0.6 -19.9,0.9 -117.8,5.5 -239.4,7.9 -361.2,7.9"></path></clipPath><clipPath id="SvgjsClipPath1037" clipPathUnits="userSpaceOnUse"><path id="SvgjsPath1036" d="m 11788.8,4327.7 h 364.801 V 6060.5 H 11788.8 Z"></path></clipPath><clipPath id="SvgjsClipPath1035" clipPathUnits="userSpaceOnUse"><path id="SvgjsPath1034" d="m 7376.67,2960.4 c 0,0 -1079.05,118.6 -776.49,411.2 l -48.59,2.9 91.93,42 -48.59,2.8 275.8,125.9 285.71,130.4 48.59,-2.9 76.93,35.1 48.59,-2.8 45.97,20.9 c 53.87,10.4 110.8,19.2 169.82,26.9 -6333.57,510.8 -5980.66,1461.4 -5980.66,1461.4 l 295.95,235.2 833.82,168.5 c 0,0 2359.26,374.2 6256.89,374.2 980.43,0 2058.46,-23.7 3220.46,-83 v 0 l 16.8,7.9 -34.5,2 114.3,52.1 -36.4,2.2 408.9,186.6 30.2,13.8 34.3,-2 30.2,13.8 25.8,-1.5 28.1,12.8 c 714.1,178.4 1465.4,200.9 1799,200.9 92.7,0 153.1,-1.8 171.6,-2.4 4,-0.1 6,-0.2 6,-0.2 l -60.6,-35.9 -88.1,-52.2 -140,-83 v 0 l -1.3,-0.6 -0.7,-0.3 752.3,-43.2 -181,-82.6 -242.9,-110.9 518.1,-30.4 -903.1,-349.5 -74.7,5.9 -23.4,-63.3 -618.5,26.2 991.2,-48 -222.2,-211.5 -156.6,-71.5 -38.7,-60.8 -1114.8,-429.2 -288.5,16.9 -1384.2,-526.6 118,-4.1 -390.1,-261.2 -783.2,-289.1 -350,19.7 -700.95,-266.6 -3.89,0.2 -170.99,-94.7 -844.16,-340.3 -758.55,44.5 -228.89,-92.6 m 1243.35,527.7 219.69,-12.9 -123.98,7.2 -95.71,5.7 m 5477.28,2744.7 c -215.8,0 -432,-7.4 -627.5,-17.5 184,8.2 395,13.9 625.8,13.9 112.4,0 229.6,-1.3 350.6,-4.4 v 0 h 0.5 c 3.8,-0.1 7.7,-0.2 11.6,-0.3 6.6,-0.2 13.3,-0.3 20.1,-0.5 -6.6,0.3 -13.2,0.6 -19.9,0.9 -117.8,5.5 -239.4,7.9 -361.2,7.9"></path></clipPath><clipPath id="SvgjsClipPath1033" clipPathUnits="userSpaceOnUse"><path id="SvgjsPath1032" d="M 1560,4673.3 H 3336 V 5719.7 H 1560 Z"></path></clipPath><clipPath id="SvgjsClipPath1031" clipPathUnits="userSpaceOnUse"><path id="SvgjsPath1030" d="m 7376.67,2960.4 c 0,0 -1079.05,118.6 -776.49,411.2 l -48.59,2.9 91.93,42 -48.59,2.8 275.8,125.9 285.71,130.4 48.59,-2.9 76.93,35.1 48.59,-2.8 45.97,20.9 c 53.87,10.4 110.8,19.2 169.82,26.9 -6333.57,510.8 -5980.66,1461.4 -5980.66,1461.4 l 295.95,235.2 833.82,168.5 c 0,0 2359.26,374.2 6256.89,374.2 980.43,0 2058.46,-23.7 3220.46,-83 v 0 l 16.8,7.9 -34.5,2 114.3,52.1 -36.4,2.2 408.9,186.6 30.2,13.8 34.3,-2 30.2,13.8 25.8,-1.5 28.1,12.8 c 714.1,178.4 1465.4,200.9 1799,200.9 92.7,0 153.1,-1.8 171.6,-2.4 4,-0.1 6,-0.2 6,-0.2 l -60.6,-35.9 -88.1,-52.2 -140,-83 v 0 l -1.3,-0.6 -0.7,-0.3 752.3,-43.2 -181,-82.6 -242.9,-110.9 518.1,-30.4 -903.1,-349.5 -74.7,5.9 -23.4,-63.3 -618.5,26.2 991.2,-48 -222.2,-211.5 -156.6,-71.5 -38.7,-60.8 -1114.8,-429.2 -288.5,16.9 -1384.2,-526.6 118,-4.1 -390.1,-261.2 -783.2,-289.1 -350,19.7 -700.95,-266.6 -3.89,0.2 -170.99,-94.7 -844.16,-340.3 -758.55,44.5 -228.89,-92.6 m 1243.35,527.7 219.69,-12.9 -123.98,7.2 -95.71,5.7 m 5477.28,2744.7 c -215.8,0 -432,-7.4 -627.5,-17.5 184,8.2 395,13.9 625.8,13.9 112.4,0 229.6,-1.3 350.6,-4.4 v 0 h 0.5 c 3.8,-0.1 7.7,-0.2 11.6,-0.3 6.6,-0.2 13.3,-0.3 20.1,-0.5 -6.6,0.3 -13.2,0.6 -19.9,0.9 -117.8,5.5 -239.4,7.9 -361.2,7.9"></path></clipPath><clipPath id="SvgjsClipPath1029" clipPathUnits="userSpaceOnUse"><path id="SvgjsPath1028" d="m 1204.8,5014.1 h 369.598 v 360 H 1204.8 Z"></path></clipPath><clipPath id="SvgjsClipPath1027" clipPathUnits="userSpaceOnUse"><path id="SvgjsPath1026" d="m 7376.67,2960.4 c 0,0 -1079.05,118.6 -776.49,411.2 l -48.59,2.9 91.93,42 -48.59,2.8 275.8,125.9 285.71,130.4 48.59,-2.9 76.93,35.1 48.59,-2.8 45.97,20.9 c 53.87,10.4 110.8,19.2 169.82,26.9 -6333.57,510.8 -5980.66,1461.4 -5980.66,1461.4 l 295.95,235.2 833.82,168.5 c 0,0 2359.26,374.2 6256.89,374.2 980.43,0 2058.46,-23.7 3220.46,-83 v 0 l 16.8,7.9 -34.5,2 114.3,52.1 -36.4,2.2 408.9,186.6 30.2,13.8 34.3,-2 30.2,13.8 25.8,-1.5 28.1,12.8 c 714.1,178.4 1465.4,200.9 1799,200.9 92.7,0 153.1,-1.8 171.6,-2.4 4,-0.1 6,-0.2 6,-0.2 l -60.6,-35.9 -88.1,-52.2 -140,-83 v 0 l -1.3,-0.6 -0.7,-0.3 752.3,-43.2 -181,-82.6 -242.9,-110.9 518.1,-30.4 -903.1,-349.5 -74.7,5.9 -23.4,-63.3 -618.5,26.2 991.2,-48 -222.2,-211.5 -156.6,-71.5 -38.7,-60.8 -1114.8,-429.2 -288.5,16.9 -1384.2,-526.6 118,-4.1 -390.1,-261.2 -783.2,-289.1 -350,19.7 -700.95,-266.6 -3.89,0.2 -170.99,-94.7 -844.16,-340.3 -758.55,44.5 -228.89,-92.6 m 1243.35,527.7 219.69,-12.9 -123.98,7.2 -95.71,5.7 m 5477.28,2744.7 c -215.8,0 -432,-7.4 -627.5,-17.5 184,8.2 395,13.9 625.8,13.9 112.4,0 229.6,-1.3 350.6,-4.4 v 0 h 0.5 c 3.8,-0.1 7.7,-0.2 11.6,-0.3 6.6,-0.2 13.3,-0.3 20.1,-0.5 -6.6,0.3 -13.2,0.6 -19.9,0.9 -117.8,5.5 -239.4,7.9 -361.2,7.9"></path></clipPath><clipPath id="SvgjsClipPath1025" clipPathUnits="userSpaceOnUse"><path id="SvgjsPath1024" d="m 13905.6,5014.1 h 720 v 360 h -720 z"></path></clipPath><clipPath id="SvgjsClipPath1023" clipPathUnits="userSpaceOnUse"><path id="SvgjsPath1022" d="m 7376.67,2960.4 c 0,0 -1079.05,118.6 -776.49,411.2 l -48.59,2.9 91.93,42 -48.59,2.8 275.8,125.9 285.71,130.4 48.59,-2.9 76.93,35.1 48.59,-2.8 45.97,20.9 c 53.87,10.4 110.8,19.2 169.82,26.9 -6333.57,510.8 -5980.66,1461.4 -5980.66,1461.4 l 295.95,235.2 833.82,168.5 c 0,0 2359.26,374.2 6256.89,374.2 980.43,0 2058.46,-23.7 3220.46,-83 v 0 l 16.8,7.9 -34.5,2 114.3,52.1 -36.4,2.2 408.9,186.6 30.2,13.8 34.3,-2 30.2,13.8 25.8,-1.5 28.1,12.8 c 714.1,178.4 1465.4,200.9 1799,200.9 92.7,0 153.1,-1.8 171.6,-2.4 4,-0.1 6,-0.2 6,-0.2 l -60.6,-35.9 -88.1,-52.2 -140,-83 v 0 l -1.3,-0.6 -0.7,-0.3 752.3,-43.2 -181,-82.6 -242.9,-110.9 518.1,-30.4 -903.1,-349.5 -74.7,5.9 -23.4,-63.3 -618.5,26.2 991.2,-48 -222.2,-211.5 -156.6,-71.5 -38.7,-60.8 -1114.8,-429.2 -288.5,16.9 -1384.2,-526.6 118,-4.1 -390.1,-261.2 -783.2,-289.1 -350,19.7 -700.95,-266.6 -3.89,0.2 -170.99,-94.7 -844.16,-340.3 -758.55,44.5 -228.89,-92.6 m 1243.35,527.7 219.69,-12.9 -123.98,7.2 -95.71,5.7 m 5477.28,2744.7 c -215.8,0 -432,-7.4 -627.5,-17.5 184,8.2 395,13.9 625.8,13.9 112.4,0 229.6,-1.3 350.6,-4.4 v 0 h 0.5 c 3.8,-0.1 7.7,-0.2 11.6,-0.3 6.6,-0.2 13.3,-0.3 20.1,-0.5 -6.6,0.3 -13.2,0.6 -19.9,0.9 -117.8,5.5 -239.4,7.9 -361.2,7.9"></path></clipPath><clipPath id="SvgjsClipPath1021" clipPathUnits="userSpaceOnUse"><path id="SvgjsPath1020" d="M 1910.4,4327.7 H 3336 v 360 H 1910.4 Z"></path></clipPath><clipPath id="SvgjsClipPath1019" clipPathUnits="userSpaceOnUse"><path id="SvgjsPath1018" d="m 7376.67,2960.4 c 0,0 -1079.05,118.6 -776.49,411.2 l -48.59,2.9 91.93,42 -48.59,2.8 275.8,125.9 285.71,130.4 48.59,-2.9 76.93,35.1 48.59,-2.8 45.97,20.9 c 53.87,10.4 110.8,19.2 169.82,26.9 -6333.57,510.8 -5980.66,1461.4 -5980.66,1461.4 l 295.95,235.2 833.82,168.5 c 0,0 2359.26,374.2 6256.89,374.2 980.43,0 2058.46,-23.7 3220.46,-83 v 0 l 16.8,7.9 -34.5,2 114.3,52.1 -36.4,2.2 408.9,186.6 30.2,13.8 34.3,-2 30.2,13.8 25.8,-1.5 28.1,12.8 c 714.1,178.4 1465.4,200.9 1799,200.9 92.7,0 153.1,-1.8 171.6,-2.4 4,-0.1 6,-0.2 6,-0.2 l -60.6,-35.9 -88.1,-52.2 -140,-83 v 0 l -1.3,-0.6 -0.7,-0.3 752.3,-43.2 -181,-82.6 -242.9,-110.9 518.1,-30.4 -903.1,-349.5 -74.7,5.9 -23.4,-63.3 -618.5,26.2 991.2,-48 -222.2,-211.5 -156.6,-71.5 -38.7,-60.8 -1114.8,-429.2 -288.5,16.9 -1384.2,-526.6 118,-4.1 -390.1,-261.2 -783.2,-289.1 -350,19.7 -700.95,-266.6 -3.89,0.2 -170.99,-94.7 -844.16,-340.3 -758.55,44.5 -228.89,-92.6 m 1243.35,527.7 219.69,-12.9 -123.98,7.2 -95.71,5.7 m 5477.28,2744.7 c -215.8,0 -432,-7.4 -627.5,-17.5 184,8.2 395,13.9 625.8,13.9 112.4,0 229.6,-1.3 350.6,-4.4 v 0 h 0.5 c 3.8,-0.1 7.7,-0.2 11.6,-0.3 6.6,-0.2 13.3,-0.3 20.1,-0.5 -6.6,0.3 -13.2,0.6 -19.9,0.9 -117.8,5.5 -239.4,7.9 -361.2,7.9"></path></clipPath><clipPath id="SvgjsClipPath1017" clipPathUnits="userSpaceOnUse"><path id="SvgjsPath1016" d="m 12139.2,4327.7 h 720 v 360 h -720 z"></path></clipPath><clipPath id="SvgjsClipPath1015" clipPathUnits="userSpaceOnUse"><path id="SvgjsPath1014" d="m 7376.67,2960.4 c 0,0 -1079.05,118.6 -776.49,411.2 l -48.59,2.9 91.93,42 -48.59,2.8 275.8,125.9 285.71,130.4 48.59,-2.9 76.93,35.1 48.59,-2.8 45.97,20.9 c 53.87,10.4 110.8,19.2 169.82,26.9 -6333.57,510.8 -5980.66,1461.4 -5980.66,1461.4 l 295.95,235.2 833.82,168.5 c 0,0 2359.26,374.2 6256.89,374.2 980.43,0 2058.46,-23.7 3220.46,-83 v 0 l 16.8,7.9 -34.5,2 114.3,52.1 -36.4,2.2 408.9,186.6 30.2,13.8 34.3,-2 30.2,13.8 25.8,-1.5 28.1,12.8 c 714.1,178.4 1465.4,200.9 1799,200.9 92.7,0 153.1,-1.8 171.6,-2.4 4,-0.1 6,-0.2 6,-0.2 l -60.6,-35.9 -88.1,-52.2 -140,-83 v 0 l -1.3,-0.6 -0.7,-0.3 752.3,-43.2 -181,-82.6 -242.9,-110.9 518.1,-30.4 -903.1,-349.5 -74.7,5.9 -23.4,-63.3 -618.5,26.2 991.2,-48 -222.2,-211.5 -156.6,-71.5 -38.7,-60.8 -1114.8,-429.2 -288.5,16.9 -1384.2,-526.6 118,-4.1 -390.1,-261.2 -783.2,-289.1 -350,19.7 -700.95,-266.6 -3.89,0.2 -170.99,-94.7 -844.16,-340.3 -758.55,44.5 -228.89,-92.6 m 1243.35,527.7 219.69,-12.9 -123.98,7.2 -95.71,5.7 m 5477.28,2744.7 c -215.8,0 -432,-7.4 -627.5,-17.5 184,8.2 395,13.9 625.8,13.9 112.4,0 229.6,-1.3 350.6,-4.4 v 0 h 0.5 c 3.8,-0.1 7.7,-0.2 11.6,-0.3 6.6,-0.2 13.3,-0.3 20.1,-0.5 -6.6,0.3 -13.2,0.6 -19.9,0.9 -117.8,5.5 -239.4,7.9 -361.2,7.9"></path></clipPath><clipPath id="SvgjsClipPath1013" clipPathUnits="userSpaceOnUse"><path id="SvgjsPath1012" d="m 2971.2,3982.1 h 364.801 v 360 H 2971.2 Z"></path></clipPath><clipPath id="SvgjsClipPath1011" clipPathUnits="userSpaceOnUse"><path id="SvgjsPath1010" d="m 7376.67,2960.4 c 0,0 -1079.05,118.6 -776.49,411.2 l -48.59,2.9 91.93,42 -48.59,2.8 275.8,125.9 285.71,130.4 48.59,-2.9 76.93,35.1 48.59,-2.8 45.97,20.9 c 53.87,10.4 110.8,19.2 169.82,26.9 -6333.57,510.8 -5980.66,1461.4 -5980.66,1461.4 l 295.95,235.2 833.82,168.5 c 0,0 2359.26,374.2 6256.89,374.2 980.43,0 2058.46,-23.7 3220.46,-83 v 0 l 16.8,7.9 -34.5,2 114.3,52.1 -36.4,2.2 408.9,186.6 30.2,13.8 34.3,-2 30.2,13.8 25.8,-1.5 28.1,12.8 c 714.1,178.4 1465.4,200.9 1799,200.9 92.7,0 153.1,-1.8 171.6,-2.4 4,-0.1 6,-0.2 6,-0.2 l -60.6,-35.9 -88.1,-52.2 -140,-83 v 0 l -1.3,-0.6 -0.7,-0.3 752.3,-43.2 -181,-82.6 -242.9,-110.9 518.1,-30.4 -903.1,-349.5 -74.7,5.9 -23.4,-63.3 -618.5,26.2 991.2,-48 -222.2,-211.5 -156.6,-71.5 -38.7,-60.8 -1114.8,-429.2 -288.5,16.9 -1384.2,-526.6 118,-4.1 -390.1,-261.2 -783.2,-289.1 -350,19.7 -700.95,-266.6 -3.89,0.2 -170.99,-94.7 -844.16,-340.3 -758.55,44.5 -228.89,-92.6 m 1243.35,527.7 219.69,-12.9 -123.98,7.2 -95.71,5.7 m 5477.28,2744.7 c -215.8,0 -432,-7.4 -627.5,-17.5 184,8.2 395,13.9 625.8,13.9 112.4,0 229.6,-1.3 350.6,-4.4 v 0 h 0.5 c 3.8,-0.1 7.7,-0.2 11.6,-0.3 6.6,-0.2 13.3,-0.3 20.1,-0.5 -6.6,0.3 -13.2,0.6 -19.9,0.9 -117.8,5.5 -239.4,7.9 -361.2,7.9"></path></clipPath><clipPath id="SvgjsClipPath1009" clipPathUnits="userSpaceOnUse"><path id="SvgjsPath1008" d="m 5088,3641.3 h 6360 v 355.199 H 5088 Z"></path></clipPath><clipPath id="SvgjsClipPath1007" clipPathUnits="userSpaceOnUse"><path id="SvgjsPath1006" d="m 7376.67,2960.4 c 0,0 -1079.05,118.6 -776.49,411.2 l -48.59,2.9 91.93,42 -48.59,2.8 275.8,125.9 285.71,130.4 48.59,-2.9 76.93,35.1 48.59,-2.8 45.97,20.9 c 53.87,10.4 110.8,19.2 169.82,26.9 -6333.57,510.8 -5980.66,1461.4 -5980.66,1461.4 l 295.95,235.2 833.82,168.5 c 0,0 2359.26,374.2 6256.89,374.2 980.43,0 2058.46,-23.7 3220.46,-83 v 0 l 16.8,7.9 -34.5,2 114.3,52.1 -36.4,2.2 408.9,186.6 30.2,13.8 34.3,-2 30.2,13.8 25.8,-1.5 28.1,12.8 c 714.1,178.4 1465.4,200.9 1799,200.9 92.7,0 153.1,-1.8 171.6,-2.4 4,-0.1 6,-0.2 6,-0.2 l -60.6,-35.9 -88.1,-52.2 -140,-83 v 0 l -1.3,-0.6 -0.7,-0.3 752.3,-43.2 -181,-82.6 -242.9,-110.9 518.1,-30.4 -903.1,-349.5 -74.7,5.9 -23.4,-63.3 -618.5,26.2 991.2,-48 -222.2,-211.5 -156.6,-71.5 -38.7,-60.8 -1114.8,-429.2 -288.5,16.9 -1384.2,-526.6 118,-4.1 -390.1,-261.2 -783.2,-289.1 -350,19.7 -700.95,-266.6 -3.89,0.2 -170.99,-94.7 -844.16,-340.3 -758.55,44.5 -228.89,-92.6 m 1243.35,527.7 219.69,-12.9 -123.98,7.2 -95.71,5.7 m 5477.28,2744.7 c -215.8,0 -432,-7.4 -627.5,-17.5 184,8.2 395,13.9 625.8,13.9 112.4,0 229.6,-1.3 350.6,-4.4 v 0 h 0.5 c 3.8,-0.1 7.7,-0.2 11.6,-0.3 6.6,-0.2 13.3,-0.3 20.1,-0.5 -6.6,0.3 -13.2,0.6 -19.9,0.9 -117.8,5.5 -239.4,7.9 -361.2,7.9"></path></clipPath><clipPath id="SvgjsClipPath1005" clipPathUnits="userSpaceOnUse"><path id="SvgjsPath1004" d="m 6499.2,2954.9 h 2832 v 700.797 h -2832 z"></path></clipPath><clipPath id="SvgjsClipPath1003" clipPathUnits="userSpaceOnUse"><path id="SvgjsPath1002" d="m 7376.67,2960.4 c 0,0 -1079.05,118.6 -776.49,411.2 l -48.59,2.9 91.93,42 -48.59,2.8 275.8,125.9 285.71,130.4 48.59,-2.9 76.93,35.1 48.59,-2.8 45.97,20.9 c 53.87,10.4 110.8,19.2 169.82,26.9 -6333.57,510.8 -5980.66,1461.4 -5980.66,1461.4 l 295.95,235.2 833.82,168.5 c 0,0 2359.26,374.2 6256.89,374.2 980.43,0 2058.46,-23.7 3220.46,-83 v 0 l 16.8,7.9 -34.5,2 114.3,52.1 -36.4,2.2 408.9,186.6 30.2,13.8 34.3,-2 30.2,13.8 25.8,-1.5 28.1,12.8 c 714.1,178.4 1465.4,200.9 1799,200.9 92.7,0 153.1,-1.8 171.6,-2.4 4,-0.1 6,-0.2 6,-0.2 l -60.6,-35.9 -88.1,-52.2 -140,-83 v 0 l -1.3,-0.6 -0.7,-0.3 752.3,-43.2 -181,-82.6 -242.9,-110.9 518.1,-30.4 -903.1,-349.5 -74.7,5.9 -23.4,-63.3 -618.5,26.2 991.2,-48 -222.2,-211.5 -156.6,-71.5 -38.7,-60.8 -1114.8,-429.2 -288.5,16.9 -1384.2,-526.6 118,-4.1 -390.1,-261.2 -783.2,-289.1 -350,19.7 -700.95,-266.6 -3.89,0.2 -170.99,-94.7 -844.16,-340.3 -758.55,44.5 -228.89,-92.6 m 1243.35,527.7 219.69,-12.9 -123.98,7.2 -95.71,5.7 m 5477.28,2744.7 c -215.8,0 -432,-7.4 -627.5,-17.5 184,8.2 395,13.9 625.8,13.9 112.4,0 229.6,-1.3 350.6,-4.4 v 0 h 0.5 c 3.8,-0.1 7.7,-0.2 11.6,-0.3 6.6,-0.2 13.3,-0.3 20.1,-0.5 -6.6,0.3 -13.2,0.6 -19.9,0.9 -117.8,5.5 -239.4,7.9 -361.2,7.9"></path></clipPath><clipPath id="SvgjsClipPath1001" clipPathUnits="userSpaceOnUse"><path id="SvgjsPath1000" d="m 9316.8,3295.7 h 720 v 359.996 h -720 z"></path></clipPath></defs><g transform="matrix(1.1285862545003484, 0, 0, 1.1285862545003484, -70.64261377101225, -22.007728284382438)"><path d="M22215 26469 c-1394 -58 -2545 -354 -3432 -883 -780 -464 -1333
-1077 -1714 -1896 -326 -704 -518 -1523 -594 -2533 -31 -414 -35 -906 -35
-4428 l0 -3546 228 -6 c401 -10 728 -65 1082 -179 967 -312 1770 -1002 2223
-1908 137 -274 212 -473 286 -765 63 -247 63 -235 59 -955 l-4 -655 -36 -145
c-145 -581 -370 -1044 -724 -1490 -132 -167 -427 -462 -596 -597 -180 -144
-426 -307 -581 -384 -92 -47 -92 -47 -49 -81 394 -316 948 -572 1522 -702 623
-142 1421 -177 2075 -91 1297 170 2412 778 3145 1713 40 51 75 90 79 87 3 -3
96 -324 206 -713 l201 -707 1712 -3 1712 -2 0 5510 0 5510 -3175 0 -3175 0 0
-1455 0 -1455 545 0 546 0 -4 -1938 c-3 -1771 -4 -1948 -20 -2067 -54 -399
-160 -658 -334 -815 -73 -65 -229 -142 -348 -172 -77 -19 -117 -22 -280 -23
-217 0 -272 10 -415 76 -322 150 -506 471 -587 1024 -16 113 -17 471 -21 6015
-2 4249 0 5937 8 6045 50 676 283 1048 726 1160 145 36 377 35 519 -1 79 -21
199 -84 265 -140 164 -140 244 -318 297 -661 15 -97 17 -291 20 -1900 l4
-1793 2635 0 2636 0 -5 1373 c-5 1352 -7 1459 -42 1877 -76 904 -264 1666
-565 2287 -199 411 -390 684 -684 979 -295 294 -626 525 -1061 739 -766 377
-1703 598 -2855 675 -433 28 -986 36 -1395 19z" style="fill: rgb(228, 228, 236);" transform="matrix(0.10000000149011612, 0, 0, -0.10000000149011612, 0, 3000)"></path><path d="M1920 24704 c0 -1325 1 -1396 18 -1391 9 3 64 26 122 52 222 98 558
200 810 245 295 53 681 73 965 51 708 -56 1345 -286 1924 -695 98 -70 265
-202 339 -269 l22 -20 0 1711 0 1712 -2100 0 -2100 0 0 -1396z" style="fill: rgb(228, 228, 236);" transform="matrix(0.10000000149011612, 0, 0, -0.10000000149011612, 0, 3000)"></path><path d="M3340 22884 c-552 -52 -1028 -224 -1468 -531 -545 -380 -952 -951
-1137 -1594 -80 -276 -108 -486 -109 -794 -1 -253 10 -371 55 -599 224 -1122
1103 -2020 2229 -2276 152 -35 311 -59 433 -65 51 -3 122 -8 158 -10 37 -3
146 0 243 5 1032 59 1939 633 2428 1535 36 66 76 144 88 173 l23 53 796 -4
c680 -3 806 -6 867 -19 476 -107 820 -440 937 -908 l21 -85 6 -3165 c5 -2977
6 -3172 23 -3285 37 -244 98 -499 171 -713 18 -53 22 -74 13 -78 -7 -2 -646
-3 -1422 -2 l-1410 3 -80 155 c-97 187 -161 289 -270 435 -656 873 -1746 1309
-2835 1134 -1199 -192 -2165 -1107 -2414 -2286 -46 -220 -60 -358 -60 -618 1
-258 13 -385 60 -610 74 -350 222 -701 426 -1005 650 -974 1798 -1470 2958
-1279 460 76 912 271 1285 554 370 280 673 646 868 1047 l62 128 3805 0 3805
0 34 -77 c123 -272 341 -581 581 -823 314 -315 660 -538 1079 -692 547 -201
1164 -232 1741 -88 1117 280 1973 1192 2179 2322 11 57 22 135 26 173 4 39 9
79 12 90 10 53 12 374 3 485 -61 719 -352 1352 -850 1850 -446 446 -1035 744
-1650 834 -721 106 -1439 -46 -2042 -431 -188 -120 -328 -233 -488 -393 -231
-230 -405 -468 -551 -754 l-77 -151 -773 0 c-609 0 -790 3 -849 14 -180 32
-388 120 -520 220 -86 65 -225 210 -278 291 -80 121 -140 262 -179 418 -16 62
-17 320 -23 3252 -7 3471 -2 3219 -60 3525 -113 592 -373 1139 -765 1608 -526
628 -1271 1063 -2076 1212 -263 48 -258 48 -1194 54 l-890 6 -67 133 c-294
583 -757 1044 -1333 1327 -324 159 -627 248 -985 289 -121 14 -452 20 -560 10z
m468 -2074 c323 -92 563 -342 639 -667 26 -111 23 -300 -6 -408 -89 -330 -352
-581 -686 -652 -100 -21 -324 -13 -423 16 -152 44 -292 131 -408 254 -254 266
-312 653 -149 984 124 252 352 428 635 488 94 21 303 13 398 -15z m-16 -10601
c308 -73 564 -326 649 -644 31 -113 31 -316 1 -430 -29 -109 -109 -266 -176
-347 -182 -219 -459 -342 -736 -325 -395 25 -719 292 -821 678 -31 115 -31
308 0 424 80 301 307 539 601 630 160 49 316 53 482 14z m13024 1 c174 -45
305 -121 431 -253 121 -126 194 -265 233 -442 17 -76 14 -268 -5 -353 -67
-293 -275 -533 -557 -642 -490 -189 -1042 96 -1179 610 -61 228 -21 481 108
688 200 323 603 485 969 392z" style="fill: rgb(244, 156, 12);" transform="matrix(0.10000000149011612, 0, 0, -0.10000000149011612, 0, 3000)"></path><path d="M6028 17056 c-257 -221 -516 -389 -842 -547 -364 -175 -729 -282
-1164 -340 -180 -24 -595 -34 -772 -18 -432 38 -887 154 -1243 318 l-87 40 0
-1894 0 -1894 88 41 c393 181 839 299 1272 335 168 14 581 8 740 -11 597 -71
1128 -258 1615 -569 132 -84 303 -210 403 -296 40 -35 75 -61 78 -59 2 3 3
1122 2 2487 l-3 2482 -87 -75z" style="fill: rgb(228, 228, 236);" transform="matrix(0.10000000149011612, 0, 0, -0.10000000149011612, 0, 3000)"></path><path d="M6731 7233 c-372 -549 -900 -1001 -1503 -1287 -275 -131 -584 -234
-868 -290 l-135 -27 -660 3 -660 3 -160 39 c-267 64 -583 174 -765 266 l-60
30 0 -575 0 -575 6885 0 6885 0 0 468 0 469 -57 13 c-32 7 -126 34 -209 61
-590 191 -1115 516 -1551 962 -151 155 -286 315 -388 462 l-66 95 -3304 0
-3304 0 -80 -117z" style="fill: rgb(228, 228, 236);" transform="matrix(0.10000000149011612, 0, 0, -0.10000000149011612, 0, 3000)"></path></g></svg><style>@media (prefers-color-scheme: light) { :root { filter: contrast(1) brightness(0.1); } }
@media (prefers-color-scheme: dark) { :root { filter: contrast(1) brightness(1); } }
</style></svg>