<?xml version="1.0" encoding="utf-8"?>
<svg id="master-artboard" viewBox="0 0 3249.422607421875 374.3875732421875" xmlns="http://www.w3.org/2000/svg" height="374.3875732421875px" width="3249.422607421875px" version="1.1"><rect id="ee-background" x="0" y="0" width="3249.422607421875" height="374.3875732421875" style="fill: white; fill-opacity: 0; pointer-events: none;"/><metadata id="metadata8"/><defs id="defs6"><clipPath id="clipPath66" clipPathUnits="userSpaceOnUse"><path id="path64" d="m 12332,9933.5 h -1124.9 v 858.1 h 564.7 v -423.3 h 372.5 v 423.3 h 1789.6 v -423.3 h 372.5 v 423.3 h 1010.4 v -573 h -440.9 v 138.3 h -251.6 v -138.3 h -662.6 v 121.4 h -367.6 v -238.9 c -87.3,248.4 -324,426.5 -602.2,426.5 h -23.3 c -337.6,0 -614,-262.2 -636.6,-594.1 m 9445.7,285.1 c -94,0 -164.5,2.8 -164.5,11.2 0,20.3 -10.2,405.7 -6.2,561.8 v 0 h 2370.8 v -561.8 c -97.2,0 -1182.3,0 -1182.3,0 v 101.7 h -547.9 v -101.7 c 0,0 -282,-11.2 -469.9,-11.2 m -901.3,172.1 h -364.5 v 364.1 h -583.4 v 36.8 h 1122 l -163.3,-98.1 -10.8,-6.4 v -296.4 m -2927.7,355.6 h -1302.1 v 45.3 h 1302.1 v -45.3"/></clipPath><linearGradient id="linearGradient78" spreadMethod="pad" gradientTransform="matrix(2e-7,5059.73,-5059.73,2e-7,11991.7,5731.9)" gradientUnits="userSpaceOnUse" y2="0" x2="1" y1="0" x1="0"><stop id="stop70" offset="0" style="stop-opacity:1;stop-color:#fbcdd3"/><stop id="stop72" offset="0.0837989" style="stop-opacity:1;stop-color:#fbcdd3"/><stop id="stop74" offset="0.860335" style="stop-opacity:1;stop-color:#f9b4b3"/><stop id="stop76" offset="1" style="stop-opacity:1;stop-color:#f9b4b3"/></linearGradient><clipPath id="clipPath88" clipPathUnits="userSpaceOnUse"><path id="path86" d="m 5.67188,6811.6 v 0 3980 H 53.0352 V 9682.8 H 5.67188 V 6811.6"/></clipPath><linearGradient id="linearGradient98" spreadMethod="pad" gradientTransform="matrix(2e-7,5059.73,-5059.73,2e-7,11991.7,5731.9)" gradientUnits="userSpaceOnUse" y2="0" x2="1" y1="0" x1="0"><stop id="stop90" offset="0" style="stop-opacity:1;stop-color:#fffdfc"/><stop id="stop92" offset="0.0837989" style="stop-opacity:1;stop-color:#fffdfc"/><stop id="stop94" offset="0.860335" style="stop-opacity:1;stop-color:#fde0d7"/><stop id="stop96" offset="1" style="stop-opacity:1;stop-color:#fde0d7"/></linearGradient><clipPath id="clipPath108" clipPathUnits="userSpaceOnUse"><path id="path106" d="M 9150.74,9436.9 H 8666.7 v 237 h -569.77 v 1117.7 h 446.51 v -545.8 h 372.5 v 545.8 H 10779.1 V 9933.5 H 9150.74 v -496.6 m -1813.88,0 h -749.7 v 208.8 h -552.33 l -289.86,303 v 842.9 H 7668.88 V 9673.9 h -331.46 -0.56 v -237 M 1333.73,9682.8 H 53.0352 v 1108.8 H 1221.69 V 9689.1 h 112.04 v -6.3 M 3957.81,9737 H 1884.38 v 317.5 h -391.42 v 737.1 H 2825.07 V 9737 h 271.28 v 1054.6 h 232.12 v -545.8 h 372.5 v 545.8 h 328.65 V 9755.8 h 10.89 l -82.7,-18.8 m -2000.57,942.9 v -563.5 h 372.5 v 563.5 h -372.5 m 2343.65,-865.1 v 976.8 h 239.55 v -393.4 h 372.49 v 393.4 H 5473.7 V 10081 L 4300.89,9814.8"/></clipPath><linearGradient id="linearGradient118" spreadMethod="pad" gradientTransform="matrix(2e-7,5059.73,-5059.73,2e-7,11991.7,5731.9)" gradientUnits="userSpaceOnUse" y2="0" x2="1" y1="0" x1="0"><stop id="stop110" offset="0" style="stop-opacity:1;stop-color:#fbcdd3"/><stop id="stop112" offset="0.0837989" style="stop-opacity:1;stop-color:#fbcdd3"/><stop id="stop114" offset="0.860335" style="stop-opacity:1;stop-color:#f9b4b3"/><stop id="stop116" offset="1" style="stop-opacity:1;stop-color:#f9b4b3"/></linearGradient><clipPath id="clipPath128" clipPathUnits="userSpaceOnUse"><path id="path126" d="m 2825.07,9737 h 271.281 v 1054.6 H 2825.07 Z"/></clipPath><linearGradient id="linearGradient138" spreadMethod="pad" gradientTransform="matrix(2e-7,5059.73,-5059.73,2e-7,11991.7,5731.9)" gradientUnits="userSpaceOnUse" y2="0" x2="1" y1="0" x1="0"><stop id="stop130" offset="0" style="stop-opacity:1;stop-color:#fbccd2"/><stop id="stop132" offset="0.0837989" style="stop-opacity:1;stop-color:#fbccd2"/><stop id="stop134" offset="0.860335" style="stop-opacity:1;stop-color:#f9abaa"/><stop id="stop136" offset="1" style="stop-opacity:1;stop-color:#f9abaa"/></linearGradient><clipPath id="clipPath148" clipPathUnits="userSpaceOnUse"><path id="path146" d="m 1333.73,9689.1 h -112.04 v 1102.5 h 271.27 v -737.1 h -159.23 v -365.4"/></clipPath><linearGradient id="linearGradient158" spreadMethod="pad" gradientTransform="matrix(2e-7,5059.73,-5059.73,2e-7,11991.7,5731.9)" gradientUnits="userSpaceOnUse" y2="0" x2="1" y1="0" x1="0"><stop id="stop150" offset="0" style="stop-opacity:1;stop-color:#fbccd2"/><stop id="stop152" offset="0.0837989" style="stop-opacity:1;stop-color:#fbccd2"/><stop id="stop154" offset="0.860335" style="stop-opacity:1;stop-color:#f9abaa"/><stop id="stop156" offset="1" style="stop-opacity:1;stop-color:#f9abaa"/></linearGradient><clipPath id="clipPath168" clipPathUnits="userSpaceOnUse"><path id="path166" d="m 5744.97,9948.7 -141.03,147.5 -11.31,11.8 -118.93,-27 v 710.6 h 271.27 v -842.9"/></clipPath><linearGradient id="linearGradient178" spreadMethod="pad" gradientTransform="matrix(2e-7,5059.73,-5059.73,2e-7,11991.7,5731.9)" gradientUnits="userSpaceOnUse" y2="0" x2="1" y1="0" x1="0"><stop id="stop170" offset="0" style="stop-opacity:1;stop-color:#fbccd2"/><stop id="stop172" offset="0.0837989" style="stop-opacity:1;stop-color:#fbccd2"/><stop id="stop174" offset="0.860335" style="stop-opacity:1;stop-color:#f9abaa"/><stop id="stop176" offset="1" style="stop-opacity:1;stop-color:#f9abaa"/></linearGradient><clipPath id="clipPath188" clipPathUnits="userSpaceOnUse"><path id="path186" d="m 4040.51,9755.8 h -10.89 v 1035.8 h 271.27 v -976.8 l -245.88,-55.8 -14.5,-3.2"/></clipPath><linearGradient id="linearGradient198" spreadMethod="pad" gradientTransform="matrix(2e-7,5059.73,-5059.73,2e-7,11991.7,5731.9)" gradientUnits="userSpaceOnUse" y2="0" x2="1" y1="0" x1="0"><stop id="stop190" offset="0" style="stop-opacity:1;stop-color:#fbccd2"/><stop id="stop192" offset="0.0837989" style="stop-opacity:1;stop-color:#fbccd2"/><stop id="stop194" offset="0.860335" style="stop-opacity:1;stop-color:#f9abaa"/><stop id="stop196" offset="1" style="stop-opacity:1;stop-color:#f9abaa"/></linearGradient><clipPath id="clipPath208" clipPathUnits="userSpaceOnUse"><path id="path206" d="m 7668.88,9673.9 h 428.051 v 1117.7 H 7668.88 Z"/></clipPath><linearGradient id="linearGradient218" spreadMethod="pad" gradientTransform="matrix(2e-7,5059.73,-5059.73,2e-7,11991.7,5731.9)" gradientUnits="userSpaceOnUse" y2="0" x2="1" y1="0" x1="0"><stop id="stop210" offset="0" style="stop-opacity:1;stop-color:#fbccd2"/><stop id="stop212" offset="0.0837989" style="stop-opacity:1;stop-color:#fbccd2"/><stop id="stop214" offset="0.860335" style="stop-opacity:1;stop-color:#f9abaa"/><stop id="stop216" offset="1" style="stop-opacity:1;stop-color:#f9abaa"/></linearGradient><clipPath id="clipPath228" clipPathUnits="userSpaceOnUse"><path id="path226" d="m 10779.1,9933.5 h 428 v 858.102 h -428 z"/></clipPath><linearGradient id="linearGradient238" spreadMethod="pad" gradientTransform="matrix(2e-7,5059.73,-5059.73,2e-7,11991.7,5731.9)" gradientUnits="userSpaceOnUse" y2="0" x2="1" y1="0" x1="0"><stop id="stop230" offset="0" style="stop-opacity:1;stop-color:#fbcad1"/><stop id="stop232" offset="0.0837989" style="stop-opacity:1;stop-color:#fbcad1"/><stop id="stop234" offset="0.860335" style="stop-opacity:1;stop-color:#e09aa3"/><stop id="stop236" offset="1" style="stop-opacity:1;stop-color:#e09aa3"/></linearGradient><clipPath id="clipPath248" clipPathUnits="userSpaceOnUse"><path id="path246" d="m 19493.5,10593.9 h -520.1 v 197.7 h 955.1 v -36.8 h -435 v -160.9"/></clipPath><linearGradient id="linearGradient260" spreadMethod="pad" gradientTransform="matrix(2e-7,5059.73,-5059.73,2e-7,11991.7,5731.9)" gradientUnits="userSpaceOnUse" y2="0" x2="1" y1="0" x1="0"><stop id="stop252" offset="0" style="stop-opacity:1;stop-color:#fbccd2"/><stop id="stop254" offset="0.0837989" style="stop-opacity:1;stop-color:#fbccd2"/><stop id="stop256" offset="0.860335" style="stop-opacity:1;stop-color:#f9abaa"/><stop id="stop258" offset="1" style="stop-opacity:1;stop-color:#f9abaa"/></linearGradient><clipPath id="clipPath270" clipPathUnits="userSpaceOnUse"><path id="path268" d="m 15378,10218.6 h -61.2 v 573 h 555.2 v -11.4 l -299.7,-158.1 V 10450 H 15378 v -231.4 m 1268.6,527.7 h -332 v 45.3 h 332 v -45.3"/></clipPath><linearGradient id="linearGradient282" spreadMethod="pad" gradientTransform="matrix(2e-7,5059.73,-5059.73,2e-7,11991.7,5731.9)" gradientUnits="userSpaceOnUse" y2="0" x2="1" y1="0" x1="0"><stop id="stop274" offset="0" style="stop-opacity:1;stop-color:#fbccd2"/><stop id="stop276" offset="0.0837989" style="stop-opacity:1;stop-color:#fbccd2"/><stop id="stop278" offset="0.860335" style="stop-opacity:1;stop-color:#f9abaa"/><stop id="stop280" offset="1" style="stop-opacity:1;stop-color:#f9abaa"/></linearGradient><clipPath id="clipPath292" clipPathUnits="userSpaceOnUse"><path id="path290" d="m 17948.7,10746.3 h 320.203 v 45.301 H 17948.7 Z"/></clipPath><linearGradient id="linearGradient304" spreadMethod="pad" gradientTransform="matrix(2e-7,5059.73,-5059.73,2e-7,11991.7,5731.9)" gradientUnits="userSpaceOnUse" y2="0" x2="1" y1="0" x1="0"><stop id="stop296" offset="0" style="stop-opacity:1;stop-color:#fbccd2"/><stop id="stop298" offset="0.0837989" style="stop-opacity:1;stop-color:#fbccd2"/><stop id="stop300" offset="0.860335" style="stop-opacity:1;stop-color:#f9abaa"/><stop id="stop302" offset="1" style="stop-opacity:1;stop-color:#f9abaa"/></linearGradient><clipPath id="clipPath314" clipPathUnits="userSpaceOnUse"><path id="path312" d="m 13232.5,9671.1 h -403.3 v 262.4 H 12332 c 22.6,331.9 299,594.1 636.6,594.1 h 23.3 c 278.2,0 514.9,-178.1 602.2,-426.5 v -40.5 h -361.6 v -389.5"/></clipPath><linearGradient id="linearGradient324" spreadMethod="pad" gradientTransform="matrix(2e-7,5059.73,-5059.73,2e-7,11991.7,5731.9)" gradientUnits="userSpaceOnUse" y2="0" x2="1" y1="0" x1="0"><stop id="stop316" offset="0" style="stop-opacity:1;stop-color:#fbcad1"/><stop id="stop318" offset="0.0837989" style="stop-opacity:1;stop-color:#fbcad1"/><stop id="stop320" offset="0.860335" style="stop-opacity:1;stop-color:#e09aa3"/><stop id="stop322" offset="1" style="stop-opacity:1;stop-color:#e09aa3"/></linearGradient><clipPath id="clipPath334" clipPathUnits="userSpaceOnUse"><path id="path332" d="m 13933.9,10368.3 h 372.5 v 423.301 h -372.5 z"/></clipPath><linearGradient id="linearGradient344" spreadMethod="pad" gradientTransform="matrix(2e-7,5059.73,-5059.73,2e-7,11991.7,5731.9)" gradientUnits="userSpaceOnUse" y2="0" x2="1" y1="0" x1="0"><stop id="stop336" offset="0" style="stop-opacity:1;stop-color:#fbcad1"/><stop id="stop338" offset="0.0837989" style="stop-opacity:1;stop-color:#fbcad1"/><stop id="stop340" offset="0.860335" style="stop-opacity:1;stop-color:#e09aa3"/><stop id="stop342" offset="1" style="stop-opacity:1;stop-color:#e09aa3"/></linearGradient><clipPath id="clipPath354" clipPathUnits="userSpaceOnUse"><path id="path352" d="m 4540.44,10398.2 h 372.488 v 393.402 H 4540.44 Z"/></clipPath><linearGradient id="linearGradient364" spreadMethod="pad" gradientTransform="matrix(2e-7,5059.73,-5059.73,2e-7,11991.7,5731.9)" gradientUnits="userSpaceOnUse" y2="0" x2="1" y1="0" x1="0"><stop id="stop356" offset="0" style="stop-opacity:1;stop-color:#fbcad1"/><stop id="stop358" offset="0.0837989" style="stop-opacity:1;stop-color:#fbcad1"/><stop id="stop360" offset="0.860335" style="stop-opacity:1;stop-color:#e09aa3"/><stop id="stop362" offset="1" style="stop-opacity:1;stop-color:#e09aa3"/></linearGradient><clipPath id="clipPath374" clipPathUnits="userSpaceOnUse"><path id="path372" d="m 11771.8,10368.3 h 372.5 v 423.301 h -372.5 z"/></clipPath><linearGradient id="linearGradient384" spreadMethod="pad" gradientTransform="matrix(2e-7,5059.73,-5059.73,2e-7,11991.7,5731.9)" gradientUnits="userSpaceOnUse" y2="0" x2="1" y1="0" x1="0"><stop id="stop376" offset="0" style="stop-opacity:1;stop-color:#fbcad1"/><stop id="stop378" offset="0.0837989" style="stop-opacity:1;stop-color:#fbcad1"/><stop id="stop380" offset="0.860335" style="stop-opacity:1;stop-color:#e09aa3"/><stop id="stop382" offset="1" style="stop-opacity:1;stop-color:#e09aa3"/></linearGradient><clipPath id="clipPath394" clipPathUnits="userSpaceOnUse"><path id="path392" d="m 8543.44,10245.8 h 372.5 v 545.801 h -372.5 z"/></clipPath><linearGradient id="linearGradient404" spreadMethod="pad" gradientTransform="matrix(2e-7,5059.73,-5059.73,2e-7,11991.7,5731.9)" gradientUnits="userSpaceOnUse" y2="0" x2="1" y1="0" x1="0"><stop id="stop396" offset="0" style="stop-opacity:1;stop-color:#fbcad1"/><stop id="stop398" offset="0.0837989" style="stop-opacity:1;stop-color:#fbcad1"/><stop id="stop400" offset="0.860335" style="stop-opacity:1;stop-color:#e09aa3"/><stop id="stop402" offset="1" style="stop-opacity:1;stop-color:#e09aa3"/></linearGradient><clipPath id="clipPath414" clipPathUnits="userSpaceOnUse"><path id="path412" d="m 3328.47,10245.8 h 372.5 v 545.801 h -372.5 z"/></clipPath><linearGradient id="linearGradient424" spreadMethod="pad" gradientTransform="matrix(2e-7,5059.73,-5059.73,2e-7,11991.7,5731.9)" gradientUnits="userSpaceOnUse" y2="0" x2="1" y1="0" x1="0"><stop id="stop416" offset="0" style="stop-opacity:1;stop-color:#fbcad1"/><stop id="stop418" offset="0.0837989" style="stop-opacity:1;stop-color:#fbcad1"/><stop id="stop420" offset="0.860335" style="stop-opacity:1;stop-color:#e09aa3"/><stop id="stop422" offset="1" style="stop-opacity:1;stop-color:#e09aa3"/></linearGradient><clipPath id="clipPath434" clipPathUnits="userSpaceOnUse"><path id="path432" d="m 1957.24,10116.4 h 372.5 v 563.504 h -372.5 z"/></clipPath><linearGradient id="linearGradient444" spreadMethod="pad" gradientTransform="matrix(2e-7,5059.73,-5059.73,2e-7,11991.7,5731.9)" gradientUnits="userSpaceOnUse" y2="0" x2="1" y1="0" x1="0"><stop id="stop436" offset="0" style="stop-opacity:1;stop-color:#fbcad1"/><stop id="stop438" offset="0.0837989" style="stop-opacity:1;stop-color:#fbcad1"/><stop id="stop440" offset="0.860335" style="stop-opacity:1;stop-color:#e09aa3"/><stop id="stop442" offset="1" style="stop-opacity:1;stop-color:#e09aa3"/></linearGradient><clipPath id="clipPath482" clipPathUnits="userSpaceOnUse"><path id="path480" d="m 23977.8,6811.6 h -1216 v 3519.9 h -271.3 V 6811.6 h -1332.1 v 3980 h 448.6 c -4,-156.1 6.2,-541.5 6.2,-561.8 0,-8.4 70.5,-11.2 164.5,-11.2 187.9,0 469.9,11.2 469.9,11.2 v 101.7 h 547.9 v -101.7 c 0,0 1085.1,0 1182.3,0 V 6811.6 m -2324,2397.6 v -389.5 h 372.5 v 389.5 h -372.5"/></clipPath><clipPath id="clipPath494" clipPathUnits="userSpaceOnUse"><path id="path492" d="m 20887.2,6811.6 h -933.3 v 3943.2 h -25.4 583.4 v -364.1 h 364.5 v 296.4 l 10.8,6.4 163.3,98.1 -163.3,-98.1 V 6811.6 m -604.7,2487 v -389.5 h 372.5 v 389.5 h -372.5"/></clipPath><clipPath id="clipPath506" clipPathUnits="userSpaceOnUse"><path id="path504" d="m 19682.6,6811.6 h -1172.8 v 3980 h 463.6 v -197.7 h 520.1 v 160.9 h 435 -245.9 V 6811.6 m -612,1317.6 v -389.4 h 372.5 v 389.4 h -372.5 m 0,627.5 v -389.5 h 372.5 v 389.5 h -372.5 m 0,647.2 v -389.5 h 372.5 v 389.5 h -372.5"/></clipPath><clipPath id="clipPath518" clipPathUnits="userSpaceOnUse"><path id="path516" d="m 17948.7,6811.6 h -1302.1 v 3934.7 h 1302.1 V 9169.4 c -88,247.1 -324,424 -601.4,424 h -23.2 c -352.5,0 -638.2,-285.7 -638.2,-638.1 V 7944 h 1262.8 v -149.6 h -1262.8 v -135.5 h 1262.8 v -847.3"/></clipPath><clipPath id="clipPath530" clipPathUnits="userSpaceOnUse"><path id="path528" d="m 16314.6,6811.6 h 332 v 3934.7 h -332 z"/></clipPath><clipPath id="clipPath542" clipPathUnits="userSpaceOnUse"><path id="path540" d="m 18238.5,6811.6 h -289.8 v 847.3 h 61.1 v 135.5 h -61.1 V 7944 h 36.8 v 1011.3 c 0,75.1 -13,147.2 -36.8,214.1 v 1576.9 h 320.2 v 45.3 -45.3 h -30.4 V 6811.6"/></clipPath><clipPath id="clipPath554" clipPathUnits="userSpaceOnUse"><path id="path552" d="m 15316.8,6811.6 h -765.9 v 3407 h -428.1 v -3407 h -918.4 v 972 h 425.6 v 2105.9 c 0,74.2 -12.6,145.4 -35.9,211.6 v 238.9 h 367.6 v -121.4 h 662.6 v 138.3 h 251.6 v -138.3 h 440.9 v -920 h -249.3 v -389.5 h 249.3 v -337.3 h -249.3 v -389.4 h 249.3 V 6811.6"/></clipPath><clipPath id="clipPath566" clipPathUnits="userSpaceOnUse"><path id="path564" d="m 15886.6,6811.6 h -569.8 v 1370.8 h 123.2 v 389.4 h -123.2 v 337.3 h 123.2 v 389.5 h -123.2 v 920 h 61.2 v 231.4 h 194.3 v 172.1 l 299.7,158.1 v 11.4 h 14.6 v -3980"/></clipPath><clipPath id="clipPath578" clipPathUnits="userSpaceOnUse"><path id="path576" d="m 13630,7783.6 h -425.6 v 1887.5 h -375.2 403.3 v 389.5 h 361.6 v 40.5 c 23.3,-66.2 35.9,-137.4 35.9,-211.6 V 7783.6"/></clipPath><clipPath id="clipPath590" clipPathUnits="userSpaceOnUse"><path id="path588" d="m 12776.4,6811.6 h -1569.3 v 395.8 h 445.9 v 1258.3 c 0,285.5 -187.4,527.1 -445.9,608.7 v 859.1 H 12332 c -1,-14.5 -1.5,-29.2 -1.5,-44 V 7783.6 h 445.9 v -972 m -937.2,2571.6 v -389.4 h 372.5 v 389.4 h -372.5"/></clipPath><clipPath id="clipPath602" clipPathUnits="userSpaceOnUse"><path id="path600" d="M 10779.1,6811.6 H 8666.7 v 2625.3 h 484.04 v 496.6 h 1628.36 v -865.9 c -248,-87.5 -425.6,-324 -425.6,-601.9 V 7207.4 h 425.6 V 6811.6 M 9677.12,9383.2 v -389.4 h 372.48 v 389.4 h -372.48"/></clipPath><clipPath id="clipPath614" clipPathUnits="userSpaceOnUse"><path id="path612" d="m 11207.1,6811.6 h -428 v 395.8 h 428 v -395.8 m -428,2256 v 865.9 h 428 v -859.1 c -60.6,19.1 -125.3,29.5 -192.2,29.5 h -23.3 c -74.5,0 -146.1,-12.8 -212.5,-36.3"/></clipPath><clipPath id="clipPath626" clipPathUnits="userSpaceOnUse"><path id="path624" d="m 12776.4,7783.6 h -445.9 v 2105.9 c 0,14.8 0.5,29.5 1.5,44 h 497.2 -52.8 V 7783.6"/></clipPath><clipPath id="clipPath638" clipPathUnits="userSpaceOnUse"><path id="path636" d="m 5.67188,6811.6 h 47.3633 V 9682.8 H 5.67188 Z"/></clipPath><clipPath id="clipPath650" clipPathUnits="userSpaceOnUse"><path id="path648" d="M 7336.86,6811.6 H 6034.83 v 2834.1 l -289.86,303 289.86,-303 h 552.33 v -208.8 h 749.7 V 6811.6 m -3281.85,0 H 53.0352 V 9682.8 H 1333.73 v 6.3 h 159.23 v 365.4 h 391.42 V 9737 h 2073.43 l 82.7,18.8 h 14.5 V 6811.6"/></clipPath><clipPath id="clipPath656" clipPathUnits="userSpaceOnUse"><path id="path654" d="M 1435.2,6804.5 H 4224 v 3259.2 H 1435.2 Z"/></clipPath><clipPath id="clipPath668" clipPathUnits="userSpaceOnUse"><path id="path666" d="M 7336.86,6811.6 H 6034.83 v 2834.1 l -289.86,303 289.86,-303 h 552.33 v -208.8 h 749.7 V 6811.6 m -3281.85,0 H 53.0352 V 9682.8 H 1333.73 v 6.3 h 159.23 v 365.4 h 391.42 V 9737 h 2073.43 l 82.7,18.8 h 14.5 V 6811.6"/></clipPath><clipPath id="clipPath674" clipPathUnits="userSpaceOnUse"><path id="path672" d="m 5596.8,9722.9 h 705.598 v 340.801 H 5596.8 Z"/></clipPath><clipPath id="clipPath686" clipPathUnits="userSpaceOnUse"><path id="path684" d="M 7336.86,6811.6 H 6034.83 v 2834.1 l -289.86,303 289.86,-303 h 552.33 v -208.8 h 749.7 V 6811.6 m -3281.85,0 H 53.0352 V 9682.8 H 1333.73 v 6.3 h 159.23 v 365.4 h 391.42 V 9737 h 2073.43 l 82.7,18.8 h 14.5 V 6811.6"/></clipPath><clipPath id="clipPath692" clipPathUnits="userSpaceOnUse"><path id="path690" d="M 48,6804.5 H 1449.6 V 9737.3 H 48 Z"/></clipPath><clipPath id="clipPath704" clipPathUnits="userSpaceOnUse"><path id="path702" d="M 7336.86,6811.6 H 6034.83 v 2834.1 l -289.86,303 289.86,-303 h 552.33 v -208.8 h 749.7 V 6811.6 m -3281.85,0 H 53.0352 V 9682.8 H 1333.73 v 6.3 h 159.23 v 365.4 h 391.42 V 9737 h 2073.43 l 82.7,18.8 h 14.5 V 6811.6"/></clipPath><clipPath id="clipPath710" clipPathUnits="userSpaceOnUse"><path id="path708" d="M 5942.4,6804.5 H 7344 V 9737.3 H 5942.4 Z"/></clipPath><clipPath id="clipPath722" clipPathUnits="userSpaceOnUse"><path id="path720" d="m 1333.73,9689.1 h 159.23 v 365.398 h -159.23 z"/></clipPath><clipPath id="clipPath734" clipPathUnits="userSpaceOnUse"><path id="path732" d="m 4055.01,9755.8 h -14.5 l 14.5,3.2 245.88,55.8 -245.88,-55.8 v -3.2"/></clipPath><clipPath id="clipPath746" clipPathUnits="userSpaceOnUse"><path id="path744" d="m 21158.4,6811.6 h -271.2 v 3881.9 l 163.3,98.1 h 107.9 v -3980"/></clipPath><clipPath id="clipPath758" clipPathUnits="userSpaceOnUse"><path id="path756" d="m 22490.5,6811.6 h 271.301 v 3519.9 H 22490.5 Z"/></clipPath><clipPath id="clipPath770" clipPathUnits="userSpaceOnUse"><path id="path768" d="m 18379.6,6811.6 h 130.199 v 3980 H 18379.6 Z"/></clipPath><clipPath id="clipPath782" clipPathUnits="userSpaceOnUse"><path id="path780" d="m 18379.6,6811.6 h -141.1 v 3934.7 h 30.4 v 45.3 h 110.7 v -3980"/></clipPath><clipPath id="clipPath794" clipPathUnits="userSpaceOnUse"><path id="path792" d="m 19928.5,6811.6 h 25.402 v 3943.2 h -25.402 z"/></clipPath><clipPath id="clipPath806" clipPathUnits="userSpaceOnUse"><path id="path804" d="m 19682.6,6811.6 h 245.898 v 3943.2 H 19682.6 Z"/></clipPath><clipPath id="clipPath818" clipPathUnits="userSpaceOnUse"><path id="path816" d="m 16314.6,6811.6 h -428 v 3980 h 428 v -45.3 -3934.7"/></clipPath><clipPath id="clipPath830" clipPathUnits="userSpaceOnUse"><path id="path828" d="m 14122.8,6811.6 h 428.098 v 3407 H 14122.8 Z"/></clipPath><clipPath id="clipPath842" clipPathUnits="userSpaceOnUse"><path id="path840" d="m 12776.4,6811.6 h 427.996 v 972 H 12776.4 Z"/></clipPath><clipPath id="clipPath854" clipPathUnits="userSpaceOnUse"><path id="path852" d="m 13204.4,7783.6 h -428 v 2149.9 h 52.8 v -262.4 h 375.2 V 7783.6"/></clipPath><clipPath id="clipPath866" clipPathUnits="userSpaceOnUse"><path id="path864" d="M 5603.94,6811.6 H 4055.01 v 2944.2 h 245.88 v 59 L 5473.7,10081 v -217 h 130.24 V 6811.6 m -815.79,2163.9 c -270.74,0 -490.21,-219.5 -490.21,-490.2 V 7335.8 h 998.28 v 1149.5 c 0,270.7 -219.47,490.2 -490.2,490.2 h -17.87"/></clipPath><clipPath id="clipPath878" clipPathUnits="userSpaceOnUse"><path id="path876" d="M 5603.94,9864 H 5473.7 v 217 l 118.93,27 11.31,-11.8 V 9864"/></clipPath><clipPath id="clipPath890" clipPathUnits="userSpaceOnUse"><path id="path888" d="m 4300.89,9755.8 h -245.88 v 3.2 l 245.88,55.8 v -59"/></clipPath><clipPath id="clipPath902" clipPathUnits="userSpaceOnUse"><path id="path900" d="M 8666.7,6811.6 H 7336.86 v 2862.3 h 332.02 v -8.5 h 428.05 v 8.5 h 569.77 v -237 -2625.3 m -851.17,958.3 v -389.4 h 372.5 v 389.4 h -372.5 m 0,627.5 v -389.5 h 372.5 v 389.5 h -372.5 m 0,647.2 v -389.5 h 372.5 v 389.5 h -372.5"/></clipPath><clipPath id="clipPath914" clipPathUnits="userSpaceOnUse"><path id="path912" d="m 7668.88,9665.4 h 428.051 v 8.5 H 7668.88 Z"/></clipPath><clipPath id="clipPath926" clipPathUnits="userSpaceOnUse"><path id="path924" d="M 6034.83,6811.6 H 5603.94 V 9864 h 141.03 v 84.7 l 289.86,-303 V 6811.6"/></clipPath><clipPath id="clipPath938" clipPathUnits="userSpaceOnUse"><path id="path936" d="m 5744.97,9864 h -141.03 v 232.2 l 141.03,-147.5 V 9864"/></clipPath><clipPath id="clipPath950" clipPathUnits="userSpaceOnUse"><path id="path948" d="m 11653,7207.4 h -445.9 v 1867 c 258.5,-81.6 445.9,-323.2 445.9,-608.7 V 7207.4"/></clipPath><clipPath id="clipPath962" clipPathUnits="userSpaceOnUse"><path id="path960" d="m 10779.1,7207.4 h -425.6 v 1258.3 c 0,277.9 177.6,514.4 425.6,601.9 V 7207.4"/></clipPath><clipPath id="clipPath974" clipPathUnits="userSpaceOnUse"><path id="path972" d="m 11207.1,7207.4 h -428 v 1860.2 c 66.4,23.5 138,36.3 212.5,36.3 h 23.3 c 66.9,0 131.6,-10.4 192.2,-29.5 v -1867"/></clipPath><clipPath id="clipPath986" clipPathUnits="userSpaceOnUse"><path id="path984" d="m 5296.22,7335.8 h -998.28 v 1149.5 c 0,270.7 219.47,490.2 490.21,490.2 h 17.87 c 270.73,0 490.2,-219.5 490.2,-490.2 V 7335.8"/></clipPath><clipPath id="clipPath998" clipPathUnits="userSpaceOnUse"><path id="path996" d="m 17948.7,7944 h -1262.8 v 1011.3 c 0,352.4 285.7,638.1 638.2,638.1 h 23.2 c 277.4,0 513.4,-176.9 601.4,-424 V 7944"/></clipPath><clipPath id="clipPath1010" clipPathUnits="userSpaceOnUse"><path id="path1008" d="m 17985.5,7944 h -36.8 v 1225.4 c 23.8,-66.9 36.8,-139 36.8,-214.1 V 7944"/></clipPath><clipPath id="clipPath1022" clipPathUnits="userSpaceOnUse"><path id="path1020" d="m 16685.9,7658.9 h 1262.8 v 135.504 h -1262.8 z"/></clipPath><clipPath id="clipPath1034" clipPathUnits="userSpaceOnUse"><path id="path1032" d="m 17948.7,7658.9 h 61.102 v 135.504 h -61.102 z"/></clipPath><clipPath id="clipPath1046" clipPathUnits="userSpaceOnUse"><path id="path1044" d="m 9677.12,8993.8 h 372.48 v 389.398 h -372.48 z"/></clipPath><clipPath id="clipPath1058" clipPathUnits="userSpaceOnUse"><path id="path1056" d="m 7815.53,8655.1 h 372.5 v 389.5 h -372.5 z"/></clipPath><clipPath id="clipPath1070" clipPathUnits="userSpaceOnUse"><path id="path1068" d="m 7815.53,8007.9 h 372.5 v 389.504 h -372.5 z"/></clipPath><clipPath id="clipPath1082" clipPathUnits="userSpaceOnUse"><path id="path1080" d="m 7815.53,7380.5 h 372.5 v 389.402 h -372.5 z"/></clipPath><clipPath id="clipPath1094" clipPathUnits="userSpaceOnUse"><path id="path1092" d="m 19070.6,9014.4 h 372.5 v 389.496 h -372.5 z"/></clipPath><clipPath id="clipPath1106" clipPathUnits="userSpaceOnUse"><path id="path1104" d="m 19070.6,8367.2 h 372.5 v 389.5 h -372.5 z"/></clipPath><clipPath id="clipPath1118" clipPathUnits="userSpaceOnUse"><path id="path1116" d="m 19070.6,7739.8 h 372.5 v 389.398 h -372.5 z"/></clipPath><clipPath id="clipPath1130" clipPathUnits="userSpaceOnUse"><path id="path1128" d="m 11839.2,8993.8 h 372.5 v 389.398 h -372.5 z"/></clipPath><clipPath id="clipPath1142" clipPathUnits="userSpaceOnUse"><path id="path1140" d="m 15067.5,8909.1 h 249.301 v 389.5 H 15067.5 Z"/></clipPath><clipPath id="clipPath1154" clipPathUnits="userSpaceOnUse"><path id="path1152" d="m 15316.8,8909.1 h 123.199 v 389.5 H 15316.8 Z"/></clipPath><clipPath id="clipPath1166" clipPathUnits="userSpaceOnUse"><path id="path1164" d="m 20282.5,8909.1 h 372.5 v 389.5 h -372.5 z"/></clipPath><clipPath id="clipPath1178" clipPathUnits="userSpaceOnUse"><path id="path1176" d="m 21653.8,8819.7 h 372.5 v 389.5 h -372.5 z"/></clipPath><clipPath id="clipPath1190" clipPathUnits="userSpaceOnUse"><path id="path1188" d="m 15067.5,8182.4 h 249.301 v 389.398 H 15067.5 Z"/></clipPath><clipPath id="clipPath1202" clipPathUnits="userSpaceOnUse"><path id="path1200" d="m 15316.8,8182.4 h 123.199 v 389.398 H 15316.8 Z"/></clipPath><clipPath id="clipPath1214" clipPathUnits="userSpaceOnUse"><path id="path1212" d="m 15598.4,16102.6 c 0,0 987.3,1107.5 2082.5,0 0,0 1041,1776.5 3333,0 0,0 596.2,484.7 1695.8,0 0,0 -5054.8,-503.4 -7111.3,0 z"/></clipPath><linearGradient id="linearGradient1226" spreadMethod="pad" gradientTransform="matrix(0,-1180.15,-1180.15,0,19154,17031.7)" gradientUnits="userSpaceOnUse" y2="0" x2="1" y1="0" x1="0"><stop id="stop1218" offset="0" style="stop-opacity:1;stop-color:#ffffff"/><stop id="stop1220" offset="0.0738916" style="stop-opacity:1;stop-color:#ffffff"/><stop id="stop1222" offset="0.842365" style="stop-opacity:1;stop-color:#fcd1d8"/><stop id="stop1224" offset="1" style="stop-opacity:1;stop-color:#fcd1d8"/></linearGradient><clipPath id="clipPath1236" clipPathUnits="userSpaceOnUse"><path id="path1234" d="m 22185.7,22126.5 c 0,0 -1176.5,1319.8 -2481.7,0 0,0 -1240.4,2117 -3971.7,0 0,0 -710.3,577.6 -2020.6,0 0,0 6023.3,-599.8 8474,0 z"/></clipPath><linearGradient id="linearGradient1248" spreadMethod="pad" gradientTransform="matrix(0,-908.056,-908.056,0,17948.7,22824.3)" gradientUnits="userSpaceOnUse" y2="0" x2="1" y1="0" x1="0"><stop id="stop1240" offset="0" style="stop-opacity:1;stop-color:#ffffff"/><stop id="stop1242" offset="0.0738916" style="stop-opacity:1;stop-color:#ffffff"/><stop id="stop1244" offset="0.842365" style="stop-opacity:1;stop-color:#fcd1d8"/><stop id="stop1246" offset="1" style="stop-opacity:1;stop-color:#fcd1d8"/></linearGradient><clipPath id="clipPath1258" clipPathUnits="userSpaceOnUse"><path id="path1256" d="m 8168.28,14781 c 0,0 -936.08,1050.1 -1974.53,0 0,0 -986.96,1684.4 -3160.1,0 0,0 -565.2,459.6 -1607.76,0 0,0 4792.51,-477.3 6742.39,0 z"/></clipPath><linearGradient id="linearGradient1268" spreadMethod="pad" gradientTransform="matrix(0,-2219.56,-2219.56,0,4797.08,16335.5)" gradientUnits="userSpaceOnUse" y2="0" x2="1" y1="0" x1="0"><stop id="stop1260" offset="0" style="stop-opacity:1;stop-color:#ffffff"/><stop id="stop1262" offset="0.0738916" style="stop-opacity:1;stop-color:#ffffff"/><stop id="stop1264" offset="0.842365" style="stop-opacity:1;stop-color:#fcd1d8"/><stop id="stop1266" offset="1" style="stop-opacity:1;stop-color:#fcd1d8"/></linearGradient><clipPath id="clipPath1278" clipPathUnits="userSpaceOnUse"><path id="path1276" d="m 1236.69,21522.8 c 0,0 1176.48,1319.7 2481.64,0 0,0 1240.44,2116.9 3971.69,0 0,0 710.37,577.6 2020.69,0 0,0 -6023.36,-599.9 -8474.02,0 z"/></clipPath><linearGradient id="linearGradient1290" spreadMethod="pad" gradientTransform="matrix(0,-1979.6,-1979.6,0,5473.7,23109.9)" gradientUnits="userSpaceOnUse" y2="0" x2="1" y1="0" x1="0"><stop id="stop1282" offset="0" style="stop-opacity:1;stop-color:#ffffff"/><stop id="stop1284" offset="0.0738916" style="stop-opacity:1;stop-color:#ffffff"/><stop id="stop1286" offset="0.842365" style="stop-opacity:1;stop-color:#fcd1d8"/><stop id="stop1288" offset="1" style="stop-opacity:1;stop-color:#fcd1d8"/></linearGradient><clipPath id="clipPath1300" clipPathUnits="userSpaceOnUse"><path id="path1298" d="M 24000,0 H 5 L 0,6811.6 H 23995 L 24000,0 m -16843.56,3675.6 -285.71,-130.4 -275.8,-125.9 48.59,-2.8 -91.93,-42 48.59,-2.9 c -302.56,-292.6 776.49,-411.2 776.49,-411.2 l 228.89,92.6 758.55,-44.5 844.16,340.3 170.99,94.7 3.89,-0.2 700.95,266.6 350,-19.7 783.2,289.1 390.1,261.2 -118,4.1 1384.2,526.6 288.5,-16.9 1114.8,429.2 38.7,60.8 156.6,71.5 222.2,211.5 -991.2,48 618.5,-26.2 23.4,63.3 74.7,-5.9 903.1,349.5 -518.1,30.4 518.1,-30.4 55.8,125.7 -331,15.6 181,82.6 -752.3,43.2 0.7,0.3 751.6,-43.5 45.3,88.6 -129.8,7.6 111.5,50.9 -35.8,41.5 -458.5,27 -0.3,-0.2 c -18.5,0.6 -78.9,2.4 -171.6,2.4 -333.6,0 -1084.9,-22.5 -1799,-200.9 l -28.1,-12.8 -25.8,1.5 -30.2,-13.8 -34.3,2 -30.2,-13.8 -408.9,-186.6 36.4,-2.2 -114.3,-52.1 34.5,-2 -16.8,-7.9 v 0 c -1162,59.3 -2240.03,83 -3220.46,83 -3897.63,0 -6256.89,-374.2 -6256.89,-374.2 l -833.82,-168.5 -295.95,-235.2 c 0,0 -352.91,-950.6 5980.66,-1461.4 -59.02,-7.7 -115.95,-16.5 -169.82,-26.9 l -45.97,-20.9 -48.59,2.8 -76.93,-35.1 -48.59,2.9 m 1683.27,-200.4 -219.69,12.9 95.71,-5.7 123.98,-7.2 m 4630.09,2740.1 c 195.5,10.1 411.7,17.5 627.5,17.5 121.8,0 243.4,-2.4 361.2,-7.9 l -0.7,-0.4 h 0.5 c -3.9,0.1 -7.8,0.2 -11.6,0.3 h -0.5 v 0 c -121,3.1 -238.2,4.4 -350.6,4.4 -230.8,0 -441.8,-5.7 -625.8,-13.9"/></clipPath><linearGradient id="linearGradient1312" spreadMethod="pad" gradientTransform="matrix(29033.8,119.975,119.975,-29033.8,-2913.4,3344.2)" gradientUnits="userSpaceOnUse" y2="0" x2="1" y1="0" x1="0"><stop id="stop1304" offset="0" style="stop-opacity:1;stop-color:#a51b26"/><stop id="stop1306" offset="0.0837989" style="stop-opacity:1;stop-color:#a51b26"/><stop id="stop1308" offset="0.860335" style="stop-opacity:1;stop-color:#d4504d"/><stop id="stop1310" offset="1" style="stop-opacity:1;stop-color:#d4504d"/></linearGradient><clipPath id="clipPath1322" clipPathUnits="userSpaceOnUse"><path id="path1320" d="m 15322.9,5956 -518.1,30.4 242.9,110.9 331,-15.6 -55.8,-125.7"/></clipPath><linearGradient id="linearGradient1332" spreadMethod="pad" gradientTransform="matrix(29033.8,119.975,119.975,-29033.8,-2913.4,3344.2)" gradientUnits="userSpaceOnUse" y2="0" x2="1" y1="0" x1="0"><stop id="stop1324" offset="0" style="stop-opacity:1;stop-color:#88181d"/><stop id="stop1326" offset="0.0837989" style="stop-opacity:1;stop-color:#88181d"/><stop id="stop1328" offset="0.860335" style="stop-opacity:1;stop-color:#ad2c2f"/><stop id="stop1330" offset="1" style="stop-opacity:1;stop-color:#ad2c2f"/></linearGradient><clipPath id="clipPath1342" clipPathUnits="userSpaceOnUse"><path id="path1340" d="m 15228.7,6179.9 -751.6,43.5 1.3,0.6 v 0 l 140,83 525.8,-30.9 v 0 l 129.8,-7.6 -45.3,-88.6 m -750.3,44.1 c -6.8,0.2 -13.5,0.3 -20.1,0.5 h -0.5 l 0.7,0.4 c 6.7,-0.3 13.3,-0.6 19.9,-0.9"/></clipPath><linearGradient id="linearGradient1352" spreadMethod="pad" gradientTransform="matrix(29033.8,119.975,119.975,-29033.8,-2913.4,3344.2)" gradientUnits="userSpaceOnUse" y2="0" x2="1" y1="0" x1="0"><stop id="stop1344" offset="0" style="stop-opacity:1;stop-color:#88181d"/><stop id="stop1346" offset="0.0837989" style="stop-opacity:1;stop-color:#88181d"/><stop id="stop1348" offset="0.860335" style="stop-opacity:1;stop-color:#ad2c2f"/><stop id="stop1350" offset="1" style="stop-opacity:1;stop-color:#ad2c2f"/></linearGradient><clipPath id="clipPath1362" clipPathUnits="userSpaceOnUse"><path id="path1360" d="m 15144.2,6276.1 -525.8,30.9 88.1,52.2 549.2,-32.2 -111.5,-50.9 v 0"/></clipPath><linearGradient id="linearGradient1372" spreadMethod="pad" gradientTransform="matrix(29033.8,119.975,119.975,-29033.8,-2913.4,3344.2)" gradientUnits="userSpaceOnUse" y2="0" x2="1" y1="0" x1="0"><stop id="stop1364" offset="0" style="stop-opacity:1;stop-color:#88181d"/><stop id="stop1366" offset="0.0837989" style="stop-opacity:1;stop-color:#88181d"/><stop id="stop1368" offset="0.860335" style="stop-opacity:1;stop-color:#ad2c2f"/><stop id="stop1370" offset="1" style="stop-opacity:1;stop-color:#ad2c2f"/></linearGradient><clipPath id="clipPath1382" clipPathUnits="userSpaceOnUse"><path id="path1380" d="m 15255.7,6327 v 0 m 0,0 -549.2,32.2 60.6,35.9 c 0,0 -2,0.1 -6,0.2 l 0.3,0.2 458.5,-27 35.8,-41.5"/></clipPath><linearGradient id="linearGradient1392" spreadMethod="pad" gradientTransform="matrix(29033.8,119.975,119.975,-29033.8,-2913.4,3344.2)" gradientUnits="userSpaceOnUse" y2="0" x2="1" y1="0" x1="0"><stop id="stop1384" offset="0" style="stop-opacity:1;stop-color:#88181d"/><stop id="stop1386" offset="0.0837989" style="stop-opacity:1;stop-color:#88181d"/><stop id="stop1388" offset="0.860335" style="stop-opacity:1;stop-color:#ad2c2f"/><stop id="stop1390" offset="1" style="stop-opacity:1;stop-color:#ad2c2f"/></linearGradient><clipPath id="clipPath1402" clipPathUnits="userSpaceOnUse"><path id="path1400" d="m 7376.67,2960.4 c 0,0 -1079.05,118.6 -776.49,411.2 l -48.59,2.9 91.93,42 -48.59,2.8 275.8,125.9 285.71,130.4 48.59,-2.9 76.93,35.1 48.59,-2.8 45.97,20.9 c 53.87,10.4 110.8,19.2 169.82,26.9 -6333.57,510.8 -5980.66,1461.4 -5980.66,1461.4 l 295.95,235.2 833.82,168.5 c 0,0 2359.26,374.2 6256.89,374.2 980.43,0 2058.46,-23.7 3220.46,-83 v 0 l 16.8,7.9 -34.5,2 114.3,52.1 -36.4,2.2 408.9,186.6 30.2,13.8 34.3,-2 30.2,13.8 25.8,-1.5 28.1,12.8 c 714.1,178.4 1465.4,200.9 1799,200.9 92.7,0 153.1,-1.8 171.6,-2.4 4,-0.1 6,-0.2 6,-0.2 l -60.6,-35.9 -88.1,-52.2 -140,-83 v 0 l -1.3,-0.6 -0.7,-0.3 752.3,-43.2 -181,-82.6 -242.9,-110.9 518.1,-30.4 -903.1,-349.5 -74.7,5.9 -23.4,-63.3 -618.5,26.2 991.2,-48 -222.2,-211.5 -156.6,-71.5 -38.7,-60.8 -1114.8,-429.2 -288.5,16.9 -1384.2,-526.6 118,-4.1 -390.1,-261.2 -783.2,-289.1 -350,19.7 -700.95,-266.6 -3.89,0.2 -170.99,-94.7 -844.16,-340.3 -758.55,44.5 -228.89,-92.6 m 1243.35,527.7 219.69,-12.9 -123.98,7.2 -95.71,5.7 m 5477.28,2744.7 c -215.8,0 -432,-7.4 -627.5,-17.5 184,8.2 395,13.9 625.8,13.9 112.4,0 229.6,-1.3 350.6,-4.4 v 0 h 0.5 c 3.8,-0.1 7.7,-0.2 11.6,-0.3 6.6,-0.2 13.3,-0.3 20.1,-0.5 -6.6,0.3 -13.2,0.6 -19.9,0.9 -117.8,5.5 -239.4,7.9 -361.2,7.9"/></clipPath><clipPath id="clipPath1408" clipPathUnits="userSpaceOnUse"><path id="path1406" d="M 12139.2,4673.3 H 13920 v 1732.8 h -1780.8 z"/></clipPath><clipPath id="clipPath1420" clipPathUnits="userSpaceOnUse"><path id="path1418" d="m 7376.67,2960.4 c 0,0 -1079.05,118.6 -776.49,411.2 l -48.59,2.9 91.93,42 -48.59,2.8 275.8,125.9 285.71,130.4 48.59,-2.9 76.93,35.1 48.59,-2.8 45.97,20.9 c 53.87,10.4 110.8,19.2 169.82,26.9 -6333.57,510.8 -5980.66,1461.4 -5980.66,1461.4 l 295.95,235.2 833.82,168.5 c 0,0 2359.26,374.2 6256.89,374.2 980.43,0 2058.46,-23.7 3220.46,-83 v 0 l 16.8,7.9 -34.5,2 114.3,52.1 -36.4,2.2 408.9,186.6 30.2,13.8 34.3,-2 30.2,13.8 25.8,-1.5 28.1,12.8 c 714.1,178.4 1465.4,200.9 1799,200.9 92.7,0 153.1,-1.8 171.6,-2.4 4,-0.1 6,-0.2 6,-0.2 l -60.6,-35.9 -88.1,-52.2 -140,-83 v 0 l -1.3,-0.6 -0.7,-0.3 752.3,-43.2 -181,-82.6 -242.9,-110.9 518.1,-30.4 -903.1,-349.5 -74.7,5.9 -23.4,-63.3 -618.5,26.2 991.2,-48 -222.2,-211.5 -156.6,-71.5 -38.7,-60.8 -1114.8,-429.2 -288.5,16.9 -1384.2,-526.6 118,-4.1 -390.1,-261.2 -783.2,-289.1 -350,19.7 -700.95,-266.6 -3.89,0.2 -170.99,-94.7 -844.16,-340.3 -758.55,44.5 -228.89,-92.6 m 1243.35,527.7 219.69,-12.9 -123.98,7.2 -95.71,5.7 m 5477.28,2744.7 c -215.8,0 -432,-7.4 -627.5,-17.5 184,8.2 395,13.9 625.8,13.9 112.4,0 229.6,-1.3 350.6,-4.4 v 0 h 0.5 c 3.8,-0.1 7.7,-0.2 11.6,-0.3 6.6,-0.2 13.3,-0.3 20.1,-0.5 -6.6,0.3 -13.2,0.6 -19.9,0.9 -117.8,5.5 -239.4,7.9 -361.2,7.9"/></clipPath><clipPath id="clipPath1426" clipPathUnits="userSpaceOnUse"><path id="path1424" d="M 13905.6,5359.7 H 14976 v 1046.4 h -1070.4 z"/></clipPath><clipPath id="clipPath1438" clipPathUnits="userSpaceOnUse"><path id="path1436" d="m 7376.67,2960.4 c 0,0 -1079.05,118.6 -776.49,411.2 l -48.59,2.9 91.93,42 -48.59,2.8 275.8,125.9 285.71,130.4 48.59,-2.9 76.93,35.1 48.59,-2.8 45.97,20.9 c 53.87,10.4 110.8,19.2 169.82,26.9 -6333.57,510.8 -5980.66,1461.4 -5980.66,1461.4 l 295.95,235.2 833.82,168.5 c 0,0 2359.26,374.2 6256.89,374.2 980.43,0 2058.46,-23.7 3220.46,-83 v 0 l 16.8,7.9 -34.5,2 114.3,52.1 -36.4,2.2 408.9,186.6 30.2,13.8 34.3,-2 30.2,13.8 25.8,-1.5 28.1,12.8 c 714.1,178.4 1465.4,200.9 1799,200.9 92.7,0 153.1,-1.8 171.6,-2.4 4,-0.1 6,-0.2 6,-0.2 l -60.6,-35.9 -88.1,-52.2 -140,-83 v 0 l -1.3,-0.6 -0.7,-0.3 752.3,-43.2 -181,-82.6 -242.9,-110.9 518.1,-30.4 -903.1,-349.5 -74.7,5.9 -23.4,-63.3 -618.5,26.2 991.2,-48 -222.2,-211.5 -156.6,-71.5 -38.7,-60.8 -1114.8,-429.2 -288.5,16.9 -1384.2,-526.6 118,-4.1 -390.1,-261.2 -783.2,-289.1 -350,19.7 -700.95,-266.6 -3.89,0.2 -170.99,-94.7 -844.16,-340.3 -758.55,44.5 -228.89,-92.6 m 1243.35,527.7 219.69,-12.9 -123.98,7.2 -95.71,5.7 m 5477.28,2744.7 c -215.8,0 -432,-7.4 -627.5,-17.5 184,8.2 395,13.9 625.8,13.9 112.4,0 229.6,-1.3 350.6,-4.4 v 0 h 0.5 c 3.8,-0.1 7.7,-0.2 11.6,-0.3 6.6,-0.2 13.3,-0.3 20.1,-0.5 -6.6,0.3 -13.2,0.6 -19.9,0.9 -117.8,5.5 -239.4,7.9 -361.2,7.9"/></clipPath><clipPath id="clipPath1444" clipPathUnits="userSpaceOnUse"><path id="path1442" d="m 14961.6,5705.3 h 369.598 v 700.801 H 14961.6 Z"/></clipPath><clipPath id="clipPath1456" clipPathUnits="userSpaceOnUse"><path id="path1454" d="m 7376.67,2960.4 c 0,0 -1079.05,118.6 -776.49,411.2 l -48.59,2.9 91.93,42 -48.59,2.8 275.8,125.9 285.71,130.4 48.59,-2.9 76.93,35.1 48.59,-2.8 45.97,20.9 c 53.87,10.4 110.8,19.2 169.82,26.9 -6333.57,510.8 -5980.66,1461.4 -5980.66,1461.4 l 295.95,235.2 833.82,168.5 c 0,0 2359.26,374.2 6256.89,374.2 980.43,0 2058.46,-23.7 3220.46,-83 v 0 l 16.8,7.9 -34.5,2 114.3,52.1 -36.4,2.2 408.9,186.6 30.2,13.8 34.3,-2 30.2,13.8 25.8,-1.5 28.1,12.8 c 714.1,178.4 1465.4,200.9 1799,200.9 92.7,0 153.1,-1.8 171.6,-2.4 4,-0.1 6,-0.2 6,-0.2 l -60.6,-35.9 -88.1,-52.2 -140,-83 v 0 l -1.3,-0.6 -0.7,-0.3 752.3,-43.2 -181,-82.6 -242.9,-110.9 518.1,-30.4 -903.1,-349.5 -74.7,5.9 -23.4,-63.3 -618.5,26.2 991.2,-48 -222.2,-211.5 -156.6,-71.5 -38.7,-60.8 -1114.8,-429.2 -288.5,16.9 -1384.2,-526.6 118,-4.1 -390.1,-261.2 -783.2,-289.1 -350,19.7 -700.95,-266.6 -3.89,0.2 -170.99,-94.7 -844.16,-340.3 -758.55,44.5 -228.89,-92.6 m 1243.35,527.7 219.69,-12.9 -123.98,7.2 -95.71,5.7 m 5477.28,2744.7 c -215.8,0 -432,-7.4 -627.5,-17.5 184,8.2 395,13.9 625.8,13.9 112.4,0 229.6,-1.3 350.6,-4.4 v 0 h 0.5 c 3.8,-0.1 7.7,-0.2 11.6,-0.3 6.6,-0.2 13.3,-0.3 20.1,-0.5 -6.6,0.3 -13.2,0.6 -19.9,0.9 -117.8,5.5 -239.4,7.9 -361.2,7.9"/></clipPath><clipPath id="clipPath1462" clipPathUnits="userSpaceOnUse"><path id="path1460" d="m 3321.6,3982.1 h 8481.6 V 6060.5 H 3321.6 Z"/></clipPath><clipPath id="clipPath1474" clipPathUnits="userSpaceOnUse"><path id="path1472" d="m 7376.67,2960.4 c 0,0 -1079.05,118.6 -776.49,411.2 l -48.59,2.9 91.93,42 -48.59,2.8 275.8,125.9 285.71,130.4 48.59,-2.9 76.93,35.1 48.59,-2.8 45.97,20.9 c 53.87,10.4 110.8,19.2 169.82,26.9 -6333.57,510.8 -5980.66,1461.4 -5980.66,1461.4 l 295.95,235.2 833.82,168.5 c 0,0 2359.26,374.2 6256.89,374.2 980.43,0 2058.46,-23.7 3220.46,-83 v 0 l 16.8,7.9 -34.5,2 114.3,52.1 -36.4,2.2 408.9,186.6 30.2,13.8 34.3,-2 30.2,13.8 25.8,-1.5 28.1,12.8 c 714.1,178.4 1465.4,200.9 1799,200.9 92.7,0 153.1,-1.8 171.6,-2.4 4,-0.1 6,-0.2 6,-0.2 l -60.6,-35.9 -88.1,-52.2 -140,-83 v 0 l -1.3,-0.6 -0.7,-0.3 752.3,-43.2 -181,-82.6 -242.9,-110.9 518.1,-30.4 -903.1,-349.5 -74.7,5.9 -23.4,-63.3 -618.5,26.2 991.2,-48 -222.2,-211.5 -156.6,-71.5 -38.7,-60.8 -1114.8,-429.2 -288.5,16.9 -1384.2,-526.6 118,-4.1 -390.1,-261.2 -783.2,-289.1 -350,19.7 -700.95,-266.6 -3.89,0.2 -170.99,-94.7 -844.16,-340.3 -758.55,44.5 -228.89,-92.6 m 1243.35,527.7 219.69,-12.9 -123.98,7.2 -95.71,5.7 m 5477.28,2744.7 c -215.8,0 -432,-7.4 -627.5,-17.5 184,8.2 395,13.9 625.8,13.9 112.4,0 229.6,-1.3 350.6,-4.4 v 0 h 0.5 c 3.8,-0.1 7.7,-0.2 11.6,-0.3 6.6,-0.2 13.3,-0.3 20.1,-0.5 -6.6,0.3 -13.2,0.6 -19.9,0.9 -117.8,5.5 -239.4,7.9 -361.2,7.9"/></clipPath><clipPath id="clipPath1480" clipPathUnits="userSpaceOnUse"><path id="path1478" d="m 11788.8,4327.7 h 364.801 V 6060.5 H 11788.8 Z"/></clipPath><clipPath id="clipPath1492" clipPathUnits="userSpaceOnUse"><path id="path1490" d="m 7376.67,2960.4 c 0,0 -1079.05,118.6 -776.49,411.2 l -48.59,2.9 91.93,42 -48.59,2.8 275.8,125.9 285.71,130.4 48.59,-2.9 76.93,35.1 48.59,-2.8 45.97,20.9 c 53.87,10.4 110.8,19.2 169.82,26.9 -6333.57,510.8 -5980.66,1461.4 -5980.66,1461.4 l 295.95,235.2 833.82,168.5 c 0,0 2359.26,374.2 6256.89,374.2 980.43,0 2058.46,-23.7 3220.46,-83 v 0 l 16.8,7.9 -34.5,2 114.3,52.1 -36.4,2.2 408.9,186.6 30.2,13.8 34.3,-2 30.2,13.8 25.8,-1.5 28.1,12.8 c 714.1,178.4 1465.4,200.9 1799,200.9 92.7,0 153.1,-1.8 171.6,-2.4 4,-0.1 6,-0.2 6,-0.2 l -60.6,-35.9 -88.1,-52.2 -140,-83 v 0 l -1.3,-0.6 -0.7,-0.3 752.3,-43.2 -181,-82.6 -242.9,-110.9 518.1,-30.4 -903.1,-349.5 -74.7,5.9 -23.4,-63.3 -618.5,26.2 991.2,-48 -222.2,-211.5 -156.6,-71.5 -38.7,-60.8 -1114.8,-429.2 -288.5,16.9 -1384.2,-526.6 118,-4.1 -390.1,-261.2 -783.2,-289.1 -350,19.7 -700.95,-266.6 -3.89,0.2 -170.99,-94.7 -844.16,-340.3 -758.55,44.5 -228.89,-92.6 m 1243.35,527.7 219.69,-12.9 -123.98,7.2 -95.71,5.7 m 5477.28,2744.7 c -215.8,0 -432,-7.4 -627.5,-17.5 184,8.2 395,13.9 625.8,13.9 112.4,0 229.6,-1.3 350.6,-4.4 v 0 h 0.5 c 3.8,-0.1 7.7,-0.2 11.6,-0.3 6.6,-0.2 13.3,-0.3 20.1,-0.5 -6.6,0.3 -13.2,0.6 -19.9,0.9 -117.8,5.5 -239.4,7.9 -361.2,7.9"/></clipPath><clipPath id="clipPath1498" clipPathUnits="userSpaceOnUse"><path id="path1496" d="M 1560,4673.3 H 3336 V 5719.7 H 1560 Z"/></clipPath><clipPath id="clipPath1510" clipPathUnits="userSpaceOnUse"><path id="path1508" d="m 7376.67,2960.4 c 0,0 -1079.05,118.6 -776.49,411.2 l -48.59,2.9 91.93,42 -48.59,2.8 275.8,125.9 285.71,130.4 48.59,-2.9 76.93,35.1 48.59,-2.8 45.97,20.9 c 53.87,10.4 110.8,19.2 169.82,26.9 -6333.57,510.8 -5980.66,1461.4 -5980.66,1461.4 l 295.95,235.2 833.82,168.5 c 0,0 2359.26,374.2 6256.89,374.2 980.43,0 2058.46,-23.7 3220.46,-83 v 0 l 16.8,7.9 -34.5,2 114.3,52.1 -36.4,2.2 408.9,186.6 30.2,13.8 34.3,-2 30.2,13.8 25.8,-1.5 28.1,12.8 c 714.1,178.4 1465.4,200.9 1799,200.9 92.7,0 153.1,-1.8 171.6,-2.4 4,-0.1 6,-0.2 6,-0.2 l -60.6,-35.9 -88.1,-52.2 -140,-83 v 0 l -1.3,-0.6 -0.7,-0.3 752.3,-43.2 -181,-82.6 -242.9,-110.9 518.1,-30.4 -903.1,-349.5 -74.7,5.9 -23.4,-63.3 -618.5,26.2 991.2,-48 -222.2,-211.5 -156.6,-71.5 -38.7,-60.8 -1114.8,-429.2 -288.5,16.9 -1384.2,-526.6 118,-4.1 -390.1,-261.2 -783.2,-289.1 -350,19.7 -700.95,-266.6 -3.89,0.2 -170.99,-94.7 -844.16,-340.3 -758.55,44.5 -228.89,-92.6 m 1243.35,527.7 219.69,-12.9 -123.98,7.2 -95.71,5.7 m 5477.28,2744.7 c -215.8,0 -432,-7.4 -627.5,-17.5 184,8.2 395,13.9 625.8,13.9 112.4,0 229.6,-1.3 350.6,-4.4 v 0 h 0.5 c 3.8,-0.1 7.7,-0.2 11.6,-0.3 6.6,-0.2 13.3,-0.3 20.1,-0.5 -6.6,0.3 -13.2,0.6 -19.9,0.9 -117.8,5.5 -239.4,7.9 -361.2,7.9"/></clipPath><clipPath id="clipPath1516" clipPathUnits="userSpaceOnUse"><path id="path1514" d="m 1204.8,5014.1 h 369.598 v 360 H 1204.8 Z"/></clipPath><clipPath id="clipPath1528" clipPathUnits="userSpaceOnUse"><path id="path1526" d="m 7376.67,2960.4 c 0,0 -1079.05,118.6 -776.49,411.2 l -48.59,2.9 91.93,42 -48.59,2.8 275.8,125.9 285.71,130.4 48.59,-2.9 76.93,35.1 48.59,-2.8 45.97,20.9 c 53.87,10.4 110.8,19.2 169.82,26.9 -6333.57,510.8 -5980.66,1461.4 -5980.66,1461.4 l 295.95,235.2 833.82,168.5 c 0,0 2359.26,374.2 6256.89,374.2 980.43,0 2058.46,-23.7 3220.46,-83 v 0 l 16.8,7.9 -34.5,2 114.3,52.1 -36.4,2.2 408.9,186.6 30.2,13.8 34.3,-2 30.2,13.8 25.8,-1.5 28.1,12.8 c 714.1,178.4 1465.4,200.9 1799,200.9 92.7,0 153.1,-1.8 171.6,-2.4 4,-0.1 6,-0.2 6,-0.2 l -60.6,-35.9 -88.1,-52.2 -140,-83 v 0 l -1.3,-0.6 -0.7,-0.3 752.3,-43.2 -181,-82.6 -242.9,-110.9 518.1,-30.4 -903.1,-349.5 -74.7,5.9 -23.4,-63.3 -618.5,26.2 991.2,-48 -222.2,-211.5 -156.6,-71.5 -38.7,-60.8 -1114.8,-429.2 -288.5,16.9 -1384.2,-526.6 118,-4.1 -390.1,-261.2 -783.2,-289.1 -350,19.7 -700.95,-266.6 -3.89,0.2 -170.99,-94.7 -844.16,-340.3 -758.55,44.5 -228.89,-92.6 m 1243.35,527.7 219.69,-12.9 -123.98,7.2 -95.71,5.7 m 5477.28,2744.7 c -215.8,0 -432,-7.4 -627.5,-17.5 184,8.2 395,13.9 625.8,13.9 112.4,0 229.6,-1.3 350.6,-4.4 v 0 h 0.5 c 3.8,-0.1 7.7,-0.2 11.6,-0.3 6.6,-0.2 13.3,-0.3 20.1,-0.5 -6.6,0.3 -13.2,0.6 -19.9,0.9 -117.8,5.5 -239.4,7.9 -361.2,7.9"/></clipPath><clipPath id="clipPath1534" clipPathUnits="userSpaceOnUse"><path id="path1532" d="m 13905.6,5014.1 h 720 v 360 h -720 z"/></clipPath><clipPath id="clipPath1546" clipPathUnits="userSpaceOnUse"><path id="path1544" d="m 7376.67,2960.4 c 0,0 -1079.05,118.6 -776.49,411.2 l -48.59,2.9 91.93,42 -48.59,2.8 275.8,125.9 285.71,130.4 48.59,-2.9 76.93,35.1 48.59,-2.8 45.97,20.9 c 53.87,10.4 110.8,19.2 169.82,26.9 -6333.57,510.8 -5980.66,1461.4 -5980.66,1461.4 l 295.95,235.2 833.82,168.5 c 0,0 2359.26,374.2 6256.89,374.2 980.43,0 2058.46,-23.7 3220.46,-83 v 0 l 16.8,7.9 -34.5,2 114.3,52.1 -36.4,2.2 408.9,186.6 30.2,13.8 34.3,-2 30.2,13.8 25.8,-1.5 28.1,12.8 c 714.1,178.4 1465.4,200.9 1799,200.9 92.7,0 153.1,-1.8 171.6,-2.4 4,-0.1 6,-0.2 6,-0.2 l -60.6,-35.9 -88.1,-52.2 -140,-83 v 0 l -1.3,-0.6 -0.7,-0.3 752.3,-43.2 -181,-82.6 -242.9,-110.9 518.1,-30.4 -903.1,-349.5 -74.7,5.9 -23.4,-63.3 -618.5,26.2 991.2,-48 -222.2,-211.5 -156.6,-71.5 -38.7,-60.8 -1114.8,-429.2 -288.5,16.9 -1384.2,-526.6 118,-4.1 -390.1,-261.2 -783.2,-289.1 -350,19.7 -700.95,-266.6 -3.89,0.2 -170.99,-94.7 -844.16,-340.3 -758.55,44.5 -228.89,-92.6 m 1243.35,527.7 219.69,-12.9 -123.98,7.2 -95.71,5.7 m 5477.28,2744.7 c -215.8,0 -432,-7.4 -627.5,-17.5 184,8.2 395,13.9 625.8,13.9 112.4,0 229.6,-1.3 350.6,-4.4 v 0 h 0.5 c 3.8,-0.1 7.7,-0.2 11.6,-0.3 6.6,-0.2 13.3,-0.3 20.1,-0.5 -6.6,0.3 -13.2,0.6 -19.9,0.9 -117.8,5.5 -239.4,7.9 -361.2,7.9"/></clipPath><clipPath id="clipPath1552" clipPathUnits="userSpaceOnUse"><path id="path1550" d="M 1910.4,4327.7 H 3336 v 360 H 1910.4 Z"/></clipPath><clipPath id="clipPath1564" clipPathUnits="userSpaceOnUse"><path id="path1562" d="m 7376.67,2960.4 c 0,0 -1079.05,118.6 -776.49,411.2 l -48.59,2.9 91.93,42 -48.59,2.8 275.8,125.9 285.71,130.4 48.59,-2.9 76.93,35.1 48.59,-2.8 45.97,20.9 c 53.87,10.4 110.8,19.2 169.82,26.9 -6333.57,510.8 -5980.66,1461.4 -5980.66,1461.4 l 295.95,235.2 833.82,168.5 c 0,0 2359.26,374.2 6256.89,374.2 980.43,0 2058.46,-23.7 3220.46,-83 v 0 l 16.8,7.9 -34.5,2 114.3,52.1 -36.4,2.2 408.9,186.6 30.2,13.8 34.3,-2 30.2,13.8 25.8,-1.5 28.1,12.8 c 714.1,178.4 1465.4,200.9 1799,200.9 92.7,0 153.1,-1.8 171.6,-2.4 4,-0.1 6,-0.2 6,-0.2 l -60.6,-35.9 -88.1,-52.2 -140,-83 v 0 l -1.3,-0.6 -0.7,-0.3 752.3,-43.2 -181,-82.6 -242.9,-110.9 518.1,-30.4 -903.1,-349.5 -74.7,5.9 -23.4,-63.3 -618.5,26.2 991.2,-48 -222.2,-211.5 -156.6,-71.5 -38.7,-60.8 -1114.8,-429.2 -288.5,16.9 -1384.2,-526.6 118,-4.1 -390.1,-261.2 -783.2,-289.1 -350,19.7 -700.95,-266.6 -3.89,0.2 -170.99,-94.7 -844.16,-340.3 -758.55,44.5 -228.89,-92.6 m 1243.35,527.7 219.69,-12.9 -123.98,7.2 -95.71,5.7 m 5477.28,2744.7 c -215.8,0 -432,-7.4 -627.5,-17.5 184,8.2 395,13.9 625.8,13.9 112.4,0 229.6,-1.3 350.6,-4.4 v 0 h 0.5 c 3.8,-0.1 7.7,-0.2 11.6,-0.3 6.6,-0.2 13.3,-0.3 20.1,-0.5 -6.6,0.3 -13.2,0.6 -19.9,0.9 -117.8,5.5 -239.4,7.9 -361.2,7.9"/></clipPath><clipPath id="clipPath1570" clipPathUnits="userSpaceOnUse"><path id="path1568" d="m 12139.2,4327.7 h 720 v 360 h -720 z"/></clipPath><clipPath id="clipPath1582" clipPathUnits="userSpaceOnUse"><path id="path1580" d="m 7376.67,2960.4 c 0,0 -1079.05,118.6 -776.49,411.2 l -48.59,2.9 91.93,42 -48.59,2.8 275.8,125.9 285.71,130.4 48.59,-2.9 76.93,35.1 48.59,-2.8 45.97,20.9 c 53.87,10.4 110.8,19.2 169.82,26.9 -6333.57,510.8 -5980.66,1461.4 -5980.66,1461.4 l 295.95,235.2 833.82,168.5 c 0,0 2359.26,374.2 6256.89,374.2 980.43,0 2058.46,-23.7 3220.46,-83 v 0 l 16.8,7.9 -34.5,2 114.3,52.1 -36.4,2.2 408.9,186.6 30.2,13.8 34.3,-2 30.2,13.8 25.8,-1.5 28.1,12.8 c 714.1,178.4 1465.4,200.9 1799,200.9 92.7,0 153.1,-1.8 171.6,-2.4 4,-0.1 6,-0.2 6,-0.2 l -60.6,-35.9 -88.1,-52.2 -140,-83 v 0 l -1.3,-0.6 -0.7,-0.3 752.3,-43.2 -181,-82.6 -242.9,-110.9 518.1,-30.4 -903.1,-349.5 -74.7,5.9 -23.4,-63.3 -618.5,26.2 991.2,-48 -222.2,-211.5 -156.6,-71.5 -38.7,-60.8 -1114.8,-429.2 -288.5,16.9 -1384.2,-526.6 118,-4.1 -390.1,-261.2 -783.2,-289.1 -350,19.7 -700.95,-266.6 -3.89,0.2 -170.99,-94.7 -844.16,-340.3 -758.55,44.5 -228.89,-92.6 m 1243.35,527.7 219.69,-12.9 -123.98,7.2 -95.71,5.7 m 5477.28,2744.7 c -215.8,0 -432,-7.4 -627.5,-17.5 184,8.2 395,13.9 625.8,13.9 112.4,0 229.6,-1.3 350.6,-4.4 v 0 h 0.5 c 3.8,-0.1 7.7,-0.2 11.6,-0.3 6.6,-0.2 13.3,-0.3 20.1,-0.5 -6.6,0.3 -13.2,0.6 -19.9,0.9 -117.8,5.5 -239.4,7.9 -361.2,7.9"/></clipPath><clipPath id="clipPath1588" clipPathUnits="userSpaceOnUse"><path id="path1586" d="m 2971.2,3982.1 h 364.801 v 360 H 2971.2 Z"/></clipPath><clipPath id="clipPath1600" clipPathUnits="userSpaceOnUse"><path id="path1598" d="m 7376.67,2960.4 c 0,0 -1079.05,118.6 -776.49,411.2 l -48.59,2.9 91.93,42 -48.59,2.8 275.8,125.9 285.71,130.4 48.59,-2.9 76.93,35.1 48.59,-2.8 45.97,20.9 c 53.87,10.4 110.8,19.2 169.82,26.9 -6333.57,510.8 -5980.66,1461.4 -5980.66,1461.4 l 295.95,235.2 833.82,168.5 c 0,0 2359.26,374.2 6256.89,374.2 980.43,0 2058.46,-23.7 3220.46,-83 v 0 l 16.8,7.9 -34.5,2 114.3,52.1 -36.4,2.2 408.9,186.6 30.2,13.8 34.3,-2 30.2,13.8 25.8,-1.5 28.1,12.8 c 714.1,178.4 1465.4,200.9 1799,200.9 92.7,0 153.1,-1.8 171.6,-2.4 4,-0.1 6,-0.2 6,-0.2 l -60.6,-35.9 -88.1,-52.2 -140,-83 v 0 l -1.3,-0.6 -0.7,-0.3 752.3,-43.2 -181,-82.6 -242.9,-110.9 518.1,-30.4 -903.1,-349.5 -74.7,5.9 -23.4,-63.3 -618.5,26.2 991.2,-48 -222.2,-211.5 -156.6,-71.5 -38.7,-60.8 -1114.8,-429.2 -288.5,16.9 -1384.2,-526.6 118,-4.1 -390.1,-261.2 -783.2,-289.1 -350,19.7 -700.95,-266.6 -3.89,0.2 -170.99,-94.7 -844.16,-340.3 -758.55,44.5 -228.89,-92.6 m 1243.35,527.7 219.69,-12.9 -123.98,7.2 -95.71,5.7 m 5477.28,2744.7 c -215.8,0 -432,-7.4 -627.5,-17.5 184,8.2 395,13.9 625.8,13.9 112.4,0 229.6,-1.3 350.6,-4.4 v 0 h 0.5 c 3.8,-0.1 7.7,-0.2 11.6,-0.3 6.6,-0.2 13.3,-0.3 20.1,-0.5 -6.6,0.3 -13.2,0.6 -19.9,0.9 -117.8,5.5 -239.4,7.9 -361.2,7.9"/></clipPath><clipPath id="clipPath1606" clipPathUnits="userSpaceOnUse"><path id="path1604" d="m 5088,3641.3 h 6360 v 355.199 H 5088 Z"/></clipPath><clipPath id="clipPath1618" clipPathUnits="userSpaceOnUse"><path id="path1616" d="m 7376.67,2960.4 c 0,0 -1079.05,118.6 -776.49,411.2 l -48.59,2.9 91.93,42 -48.59,2.8 275.8,125.9 285.71,130.4 48.59,-2.9 76.93,35.1 48.59,-2.8 45.97,20.9 c 53.87,10.4 110.8,19.2 169.82,26.9 -6333.57,510.8 -5980.66,1461.4 -5980.66,1461.4 l 295.95,235.2 833.82,168.5 c 0,0 2359.26,374.2 6256.89,374.2 980.43,0 2058.46,-23.7 3220.46,-83 v 0 l 16.8,7.9 -34.5,2 114.3,52.1 -36.4,2.2 408.9,186.6 30.2,13.8 34.3,-2 30.2,13.8 25.8,-1.5 28.1,12.8 c 714.1,178.4 1465.4,200.9 1799,200.9 92.7,0 153.1,-1.8 171.6,-2.4 4,-0.1 6,-0.2 6,-0.2 l -60.6,-35.9 -88.1,-52.2 -140,-83 v 0 l -1.3,-0.6 -0.7,-0.3 752.3,-43.2 -181,-82.6 -242.9,-110.9 518.1,-30.4 -903.1,-349.5 -74.7,5.9 -23.4,-63.3 -618.5,26.2 991.2,-48 -222.2,-211.5 -156.6,-71.5 -38.7,-60.8 -1114.8,-429.2 -288.5,16.9 -1384.2,-526.6 118,-4.1 -390.1,-261.2 -783.2,-289.1 -350,19.7 -700.95,-266.6 -3.89,0.2 -170.99,-94.7 -844.16,-340.3 -758.55,44.5 -228.89,-92.6 m 1243.35,527.7 219.69,-12.9 -123.98,7.2 -95.71,5.7 m 5477.28,2744.7 c -215.8,0 -432,-7.4 -627.5,-17.5 184,8.2 395,13.9 625.8,13.9 112.4,0 229.6,-1.3 350.6,-4.4 v 0 h 0.5 c 3.8,-0.1 7.7,-0.2 11.6,-0.3 6.6,-0.2 13.3,-0.3 20.1,-0.5 -6.6,0.3 -13.2,0.6 -19.9,0.9 -117.8,5.5 -239.4,7.9 -361.2,7.9"/></clipPath><clipPath id="clipPath1624" clipPathUnits="userSpaceOnUse"><path id="path1622" d="m 6499.2,2954.9 h 2832 v 700.797 h -2832 z"/></clipPath><clipPath id="clipPath1636" clipPathUnits="userSpaceOnUse"><path id="path1634" d="m 7376.67,2960.4 c 0,0 -1079.05,118.6 -776.49,411.2 l -48.59,2.9 91.93,42 -48.59,2.8 275.8,125.9 285.71,130.4 48.59,-2.9 76.93,35.1 48.59,-2.8 45.97,20.9 c 53.87,10.4 110.8,19.2 169.82,26.9 -6333.57,510.8 -5980.66,1461.4 -5980.66,1461.4 l 295.95,235.2 833.82,168.5 c 0,0 2359.26,374.2 6256.89,374.2 980.43,0 2058.46,-23.7 3220.46,-83 v 0 l 16.8,7.9 -34.5,2 114.3,52.1 -36.4,2.2 408.9,186.6 30.2,13.8 34.3,-2 30.2,13.8 25.8,-1.5 28.1,12.8 c 714.1,178.4 1465.4,200.9 1799,200.9 92.7,0 153.1,-1.8 171.6,-2.4 4,-0.1 6,-0.2 6,-0.2 l -60.6,-35.9 -88.1,-52.2 -140,-83 v 0 l -1.3,-0.6 -0.7,-0.3 752.3,-43.2 -181,-82.6 -242.9,-110.9 518.1,-30.4 -903.1,-349.5 -74.7,5.9 -23.4,-63.3 -618.5,26.2 991.2,-48 -222.2,-211.5 -156.6,-71.5 -38.7,-60.8 -1114.8,-429.2 -288.5,16.9 -1384.2,-526.6 118,-4.1 -390.1,-261.2 -783.2,-289.1 -350,19.7 -700.95,-266.6 -3.89,0.2 -170.99,-94.7 -844.16,-340.3 -758.55,44.5 -228.89,-92.6 m 1243.35,527.7 219.69,-12.9 -123.98,7.2 -95.71,5.7 m 5477.28,2744.7 c -215.8,0 -432,-7.4 -627.5,-17.5 184,8.2 395,13.9 625.8,13.9 112.4,0 229.6,-1.3 350.6,-4.4 v 0 h 0.5 c 3.8,-0.1 7.7,-0.2 11.6,-0.3 6.6,-0.2 13.3,-0.3 20.1,-0.5 -6.6,0.3 -13.2,0.6 -19.9,0.9 -117.8,5.5 -239.4,7.9 -361.2,7.9"/></clipPath><clipPath id="clipPath1642" clipPathUnits="userSpaceOnUse"><path id="path1640" d="m 9316.8,3295.7 h 720 v 359.996 h -720 z"/></clipPath></defs><g transform="matrix(0.8996350169181824, 0, 0, 0.8996350169181824, -59.29049301147461, -295.0513916015625)"><g transform="matrix(0.10000000149011612, 0, 0, -0.10000000149011612, 634.1288452148438, 2993.63232421875)" fill="#000000" stroke="none">
    <path d="M 10665 25750 C 10410 25717 10211 25629 10053 25477 C 9883 25314 9782 25106 9733 24820 C 9708 24675 9711 24350 9738 24200 C 9777 23984 9842 23828 9957 23675 C 10143 23427 10456 23290 10833 23290 C 11180 23290 11447 23393 11646 23601 C 11725 23685 11761 23740 11820 23863 C 11870 23968 11908 24094 11931 24235 C 11951 24355 11948 24720 11927 24837 C 11884 25064 11809 25244 11696 25387 C 11552 25569 11341 25690 11090 25736 C 10987 25754 10760 25762 10665 25750 Z M 11014 25330 C 11347 25245 11494 24933 11459 24387 C 11440 24101 11359 23914 11205 23804 C 11087 23720 10923 23683 10755 23700 C 10603 23716 10499 23761 10408 23848 C 10261 23988 10200 24187 10200 24525 C 10200 24763 10223 24892 10291 25038 C 10361 25189 10498 25299 10660 25334 C 10759 25356 10922 25354 11014 25330 Z" style="fill: rgb(228, 228, 236);"/>
    <path d="M 17075 25725 C 17042 25718 16963 25702 16900 25691 C 16700 25653 16500 25558 16323 25416 C 16157 25282 16002 25036 15944 24815 C 15910 24683 15900 24455 15924 24305 C 16003 23788 16314 23424 16795 23285 C 16950 23240 17052 23227 17230 23227 C 17533 23227 17763 23293 18012 23453 C 18109 23515 18105 23486 18108 24023 L 18111 24490 L 17975 24490 L 17840 24490 L 17840 24252 C 17840 24120 17837 23932 17833 23832 L 17827 23651 L 17740 23611 C 17360 23434 16958 23453 16637 23663 C 16444 23789 16321 23945 16250 24152 C 16209 24275 16197 24369 16203 24522 C 16210 24715 16253 24849 16356 25008 C 16490 25213 16699 25358 16970 25433 C 17032 25450 17074 25453 17215 25454 C 17367 25454 17395 25451 17483 25427 C 17603 25395 17758 25322 17865 25246 C 17909 25215 17951 25190 17960 25190 C 17977 25190 18091 25303 18109 25337 C 18116 25351 18117 25367 18111 25383 C 18102 25406 18029 25473 17963 25518 C 17840 25604 17561 25695 17330 25726 C 17205 25742 17155 25742 17075 25725 Z" style="fill: rgb(244, 156, 12);"/>
    <path d="M 28875 25715 C 28770 25698 28631 25659 28557 25626 C 28270 25499 28131 25256 28170 24947 C 28209 24634 28376 24512 29000 24340 C 29368 24238 29475 24195 29566 24108 C 29631 24047 29654 23987 29653 23884 C 29652 23786 29624 23725 29546 23652 C 29429 23544 29279 23492 29055 23483 C 28754 23471 28479 23555 28280 23721 L 28220 23771 L 28184 23714 C 28108 23596 28101 23545 28154 23495 C 28199 23453 28326 23379 28420 23340 C 28608 23262 28794 23228 29025 23227 C 29207 23227 29324 23244 29465 23291 C 29592 23334 29674 23382 29757 23465 C 29875 23583 29930 23722 29930 23903 C 29930 24087 29877 24214 29752 24331 C 29631 24444 29550 24477 29068 24609 C 28926 24647 28776 24694 28734 24711 C 28582 24774 28488 24860 28460 24958 C 28455 24978 28450 25027 28450 25065 C 28450 25239 28587 25376 28825 25441 C 28890 25459 28934 25463 29055 25464 C 29271 25465 29409 25433 29628 25330 C 29686 25302 29737 25280 29742 25280 C 29752 25280 29789 25359 29815 25438 L 29832 25492 L 29795 25530 C 29767 25559 29729 25579 29641 25614 C 29506 25667 29444 25683 29300 25704 C 29136 25727 28978 25731 28875 25715 Z" style="fill: rgb(244, 156, 12);"/>
    <path d="M 320 24520 L 320 23320 L 1095 23320 L 1870 23320 L 1870 23515 L 1870 23710 L 1330 23710 L 790 23710 L 790 24715 L 790 25720 L 555 25720 L 320 25720 L 320 24520 Z" style="fill: rgb(228, 228, 236);"/>
    <path d="M 2807 25678 C 2799 25654 2619 25133 2407 24520 C 2195 23907 2015 23386 2006 23363 L 1991 23320 L 2233 23320 L 2476 23320 L 2566 23598 L 2656 23875 L 3117 23878 C 3550 23880 3580 23879 3588 23863 C 3592 23853 3634 23727 3681 23583 L 3765 23320 L 4013 23320 C 4149 23320 4260 23321 4260 23323 C 4259 23324 4073 23863 3846 24520 L 3433 25715 L 3128 25718 L 2822 25720 L 2807 25678 Z M 3296 24755 C 3381 24497 3450 24282 3450 24278 C 3450 24273 3302 24270 3120 24270 C 2887 24270 2790 24273 2790 24281 C 2790 24287 2859 24503 2943 24761 C 3089 25212 3096 25231 3118 25228 C 3140 25225 3154 25189 3296 24755 Z" style="fill: rgb(228, 228, 236);"/>
    <path d="M 4620 24520 L 4620 23320 L 4845 23320 L 5070 23320 L 5072 24148 L 5075 24975 L 5096 24978 C 5119 24981 5107 24999 5909 23698 L 6142 23320 L 6381 23320 L 6620 23320 L 6620 24520 L 6620 25720 L 6395 25720 L 6170 25720 L 6170 24951 L 6170 24181 L 6149 24175 C 6135 24170 6124 24173 6119 24181 C 6115 24189 5898 24537 5638 24955 L 5164 25715 L 4892 25718 L 4620 25720 L 4620 24520 Z" style="fill: rgb(228, 228, 236);"/>
    <path d="M 7260 24521 L 7260 23320 L 7730 23320 C 8293 23320 8439 23332 8628 23396 C 8886 23482 9075 23641 9189 23867 C 9276 24039 9309 24192 9317 24450 C 9323 24671 9313 24797 9276 24943 C 9228 25133 9155 25272 9040 25393 C 8902 25539 8697 25648 8475 25693 C 8384 25711 8327 25713 7818 25717 L 7260 25721 L 7260 24521 Z M 8355 25301 C 8592 25238 8727 25108 8793 24880 C 8853 24673 8854 24357 8795 24160 C 8752 24020 8666 23901 8553 23830 C 8414 23742 8298 23720 7969 23720 L 7730 23720 L 7730 24526 L 7730 25332 L 8003 25328 C 8240 25324 8285 25320 8355 25301 Z" style="fill: rgb(228, 228, 236);"/>
    <path d="M 12460 24520 L 12460 23320 L 12690 23320 L 12920 23320 L 12922 24148 C 12925 24967 12925 24975 12945 24977 C 12962 24979 13054 24835 13475 24150 L 13985 23320 L 14228 23320 L 14470 23320 L 14470 24520 L 14470 25720 L 14245 25720 L 14020 25720 L 14020 24951 L 14020 24182 L 13998 24176 C 13982 24172 13971 24176 13962 24188 C 13955 24197 13737 24546 13477 24962 L 13005 25720 L 12733 25720 L 12460 25720 L 12460 24520 Z" style="fill: rgb(228, 228, 236);"/>
    <path d="M 19866 25668 C 19859 25650 19775 25466 19680 25260 C 19187 24187 18792 23323 18787 23305 C 18784 23294 18779 23275 18775 23263 L 18769 23240 L 18917 23240 L 19065 23240 L 19165 23463 C 19219 23585 19285 23731 19311 23788 L 19359 23890 L 20028 23890 L 20697 23890 L 20707 23856 C 20713 23837 20775 23691 20846 23531 L 20975 23240 L 21115 23242 L 21255 23245 L 21258 23272 C 21262 23305 21265 23298 20910 24070 C 20755 24408 20590 24768 20545 24870 C 20499 24972 20396 25197 20317 25370 L 20172 25685 L 20129 25692 C 20105 25695 20039 25699 19983 25699 L 19880 25700 L 19866 25668 Z M 20140 25107 C 20337 24668 20547 24195 20554 24174 C 20560 24154 20557 24153 20409 24147 C 20225 24139 19486 24138 19478 24145 C 19475 24148 19496 24204 19525 24268 C 19554 24332 19647 24540 19733 24730 C 19940 25191 20011 25340 20024 25340 C 20030 25340 20082 25235 20140 25107 Z" style="fill: rgb(244, 156, 12);"/>
    <path d="M 22000 24470 L 22000 23240 L 22140 23240 L 22280 23240 L 22280 24167 C 22280 25081 22280 25094 22299 25075 C 22310 25064 22340 25017 22367 24970 C 22494 24751 22546 24661 22740 24335 C 22854 24143 23003 23888 23072 23770 L 23197 23555 L 23273 23552 C 23343 23549 23350 23551 23363 23572 C 23371 23585 23403 23640 23434 23695 C 23466 23750 23568 23926 23662 24085 C 23756 24245 23842 24393 23854 24415 C 23865 24437 23900 24498 23931 24550 C 24081 24802 24180 24971 24211 25027 C 24230 25062 24250 25088 24255 25087 C 24272 25081 24277 24867 24279 24043 L 24280 23240 L 24410 23240 L 24540 23240 L 24540 24470 L 24540 25701 L 24423 25698 L 24306 25695 L 23958 25095 C 23766 24765 23539 24372 23453 24223 C 23367 24073 23291 23950 23284 23950 C 23266 23950 23233 24001 23100 24230 C 23038 24337 22890 24589 22772 24790 C 22654 24991 22538 25189 22515 25230 C 22492 25271 22421 25393 22358 25500 L 22242 25695 L 22121 25698 L 22000 25701 L 22000 24470 Z" style="fill: rgb(244, 156, 12);"/>
    <path d="M 25660 24468 L 25660 23237 L 26307 23243 C 26662 23247 27058 23250 27187 23250 L 27421 23250 L 27418 23362 L 27415 23475 L 27385 23490 C 27359 23503 27252 23506 26650 23510 L 25945 23515 L 25945 23940 L 25945 24365 L 26578 24368 L 27210 24370 L 27210 24495 L 27210 24620 L 26578 24622 L 25945 24625 L 25945 25035 L 25945 25445 L 26650 25450 L 27355 25455 L 27358 25578 L 27361 25700 L 26510 25700 L 25660 25700 L 25660 24468 Z" style="fill: rgb(244, 156, 12);"/>
  </g><g transform="matrix(0.1624010056257248, 0, 0, 0.1624010056257248, 59.96556091308594, 311.434326171875)" style="">
    <path d="M22215 26469 c-1394 -58 -2545 -354 -3432 -883 -780 -464 -1333&#10;-1077 -1714 -1896 -326 -704 -518 -1523 -594 -2533 -31 -414 -35 -906 -35&#10;-4428 l0 -3546 228 -6 c401 -10 728 -65 1082 -179 967 -312 1770 -1002 2223&#10;-1908 137 -274 212 -473 286 -765 63 -247 63 -235 59 -955 l-4 -655 -36 -145&#10;c-145 -581 -370 -1044 -724 -1490 -132 -167 -427 -462 -596 -597 -180 -144&#10;-426 -307 -581 -384 -92 -47 -92 -47 -49 -81 394 -316 948 -572 1522 -702 623&#10;-142 1421 -177 2075 -91 1297 170 2412 778 3145 1713 40 51 75 90 79 87 3 -3&#10;96 -324 206 -713 l201 -707 1712 -3 1712 -2 0 5510 0 5510 -3175 0 -3175 0 0&#10;-1455 0 -1455 545 0 546 0 -4 -1938 c-3 -1771 -4 -1948 -20 -2067 -54 -399&#10;-160 -658 -334 -815 -73 -65 -229 -142 -348 -172 -77 -19 -117 -22 -280 -23&#10;-217 0 -272 10 -415 76 -322 150 -506 471 -587 1024 -16 113 -17 471 -21 6015&#10;-2 4249 0 5937 8 6045 50 676 283 1048 726 1160 145 36 377 35 519 -1 79 -21&#10;199 -84 265 -140 164 -140 244 -318 297 -661 15 -97 17 -291 20 -1900 l4&#10;-1793 2635 0 2636 0 -5 1373 c-5 1352 -7 1459 -42 1877 -76 904 -264 1666&#10;-565 2287 -199 411 -390 684 -684 979 -295 294 -626 525 -1061 739 -766 377&#10;-1703 598 -2855 675 -433 28 -986 36 -1395 19z" style="fill: rgb(228, 228, 236);" transform="matrix(0.10000000149011612, 0, 0, -0.10000000149011612, 0, 3000)"/>
    <path d="M1920 24704 c0 -1325 1 -1396 18 -1391 9 3 64 26 122 52 222 98 558&#10;200 810 245 295 53 681 73 965 51 708 -56 1345 -286 1924 -695 98 -70 265&#10;-202 339 -269 l22 -20 0 1711 0 1712 -2100 0 -2100 0 0 -1396z" style="fill: rgb(228, 228, 236);" transform="matrix(0.10000000149011612, 0, 0, -0.10000000149011612, 0, 3000)"/>
    <path d="M3340 22884 c-552 -52 -1028 -224 -1468 -531 -545 -380 -952 -951&#10;-1137 -1594 -80 -276 -108 -486 -109 -794 -1 -253 10 -371 55 -599 224 -1122&#10;1103 -2020 2229 -2276 152 -35 311 -59 433 -65 51 -3 122 -8 158 -10 37 -3&#10;146 0 243 5 1032 59 1939 633 2428 1535 36 66 76 144 88 173 l23 53 796 -4&#10;c680 -3 806 -6 867 -19 476 -107 820 -440 937 -908 l21 -85 6 -3165 c5 -2977&#10;6 -3172 23 -3285 37 -244 98 -499 171 -713 18 -53 22 -74 13 -78 -7 -2 -646&#10;-3 -1422 -2 l-1410 3 -80 155 c-97 187 -161 289 -270 435 -656 873 -1746 1309&#10;-2835 1134 -1199 -192 -2165 -1107 -2414 -2286 -46 -220 -60 -358 -60 -618 1&#10;-258 13 -385 60 -610 74 -350 222 -701 426 -1005 650 -974 1798 -1470 2958&#10;-1279 460 76 912 271 1285 554 370 280 673 646 868 1047 l62 128 3805 0 3805&#10;0 34 -77 c123 -272 341 -581 581 -823 314 -315 660 -538 1079 -692 547 -201&#10;1164 -232 1741 -88 1117 280 1973 1192 2179 2322 11 57 22 135 26 173 4 39 9&#10;79 12 90 10 53 12 374 3 485 -61 719 -352 1352 -850 1850 -446 446 -1035 744&#10;-1650 834 -721 106 -1439 -46 -2042 -431 -188 -120 -328 -233 -488 -393 -231&#10;-230 -405 -468 -551 -754 l-77 -151 -773 0 c-609 0 -790 3 -849 14 -180 32&#10;-388 120 -520 220 -86 65 -225 210 -278 291 -80 121 -140 262 -179 418 -16 62&#10;-17 320 -23 3252 -7 3471 -2 3219 -60 3525 -113 592 -373 1139 -765 1608 -526&#10;628 -1271 1063 -2076 1212 -263 48 -258 48 -1194 54 l-890 6 -67 133 c-294&#10;583 -757 1044 -1333 1327 -324 159 -627 248 -985 289 -121 14 -452 20 -560 10z&#10;m468 -2074 c323 -92 563 -342 639 -667 26 -111 23 -300 -6 -408 -89 -330 -352&#10;-581 -686 -652 -100 -21 -324 -13 -423 16 -152 44 -292 131 -408 254 -254 266&#10;-312 653 -149 984 124 252 352 428 635 488 94 21 303 13 398 -15z m-16 -10601&#10;c308 -73 564 -326 649 -644 31 -113 31 -316 1 -430 -29 -109 -109 -266 -176&#10;-347 -182 -219 -459 -342 -736 -325 -395 25 -719 292 -821 678 -31 115 -31&#10;308 0 424 80 301 307 539 601 630 160 49 316 53 482 14z m13024 1 c174 -45&#10;305 -121 431 -253 121 -126 194 -265 233 -442 17 -76 14 -268 -5 -353 -67&#10;-293 -275 -533 -557 -642 -490 -189 -1042 96 -1179 610 -61 228 -21 481 108&#10;688 200 323 603 485 969 392z" style="fill: rgb(244, 156, 12);" transform="matrix(0.10000000149011612, 0, 0, -0.10000000149011612, 0, 3000)"/>
    <path d="M6028 17056 c-257 -221 -516 -389 -842 -547 -364 -175 -729 -282&#10;-1164 -340 -180 -24 -595 -34 -772 -18 -432 38 -887 154 -1243 318 l-87 40 0&#10;-1894 0 -1894 88 41 c393 181 839 299 1272 335 168 14 581 8 740 -11 597 -71&#10;1128 -258 1615 -569 132 -84 303 -210 403 -296 40 -35 75 -61 78 -59 2 3 3&#10;1122 2 2487 l-3 2482 -87 -75z" style="fill: rgb(228, 228, 236);" transform="matrix(0.10000000149011612, 0, 0, -0.10000000149011612, 0, 3000)"/>
    <path d="M6731 7233 c-372 -549 -900 -1001 -1503 -1287 -275 -131 -584 -234&#10;-868 -290 l-135 -27 -660 3 -660 3 -160 39 c-267 64 -583 174 -765 266 l-60&#10;30 0 -575 0 -575 6885 0 6885 0 0 468 0 469 -57 13 c-32 7 -126 34 -209 61&#10;-590 191 -1115 516 -1551 962 -151 155 -286 315 -388 462 l-66 95 -3304 0&#10;-3304 0 -80 -117z" style="fill: rgb(228, 228, 236);" transform="matrix(0.10000000149011612, 0, 0, -0.10000000149011612, 0, 3000)"/>
  </g></g></svg>